# Made in Blockbench 4.10.0
mtllib field_horsetail_4.mtl

o cube
v 0.3453203916154428 0.875 0.8734296083845573
v 0.3453203916154428 0.875 0.8734296083845573
v 0.3453203916154427 0 0.8734296083845572
v 0.3453203916154427 0 0.8734296083845572
v 0.6546796083845573 0.875 0.5640703916154428
v 0.6546796083845573 0.875 0.5640703916154428
v 0.6546796083845572 0 0.5640703916154427
v 0.6546796083845572 0 0.5640703916154427
v 0.32322330470336313 0.875 0.5732233047033632
v 0.32322330470336313 0.875 0.5732233047033632
v 0.3232233047033631 5.551115123125783e-17 0.573223304703363
v 0.3232233047033631 5.551115123125783e-17 0.573223304703363
v 0.6325825214724776 0.875 0.8825825214724777
v 0.6325825214724776 0.875 0.8825825214724777
v 0.6325825214724776 0 0.8825825214724775
v 0.6325825214724776 0 0.8825825214724775
v 0.2812499999999999 0.875 0.71875
v 0.2812499999999999 0.875 0.71875
v 0.28125000000000006 0 0.71875
v 0.28125000000000006 0 0.71875
v 0.7187499999999999 0.875 0.7187499999999999
v 0.7187499999999999 0.875 0.7187499999999999
v 0.71875 0 0.71875
v 0.71875 0 0.71875
v 0.5000000000000001 0.875 0.5
v 0.5000000000000001 0.875 0.5
v 0.5 0 0.5
v 0.5 0 0.5
v 0.49999999999999994 0.875 0.9375
v 0.49999999999999994 0.875 0.9375
v 0.4999999999999999 0 0.9375
v 0.4999999999999999 0 0.9375
v 0.7476212353909777 0.9375 0.26929114273859095
v 0.7476212353909777 0.9375 0.26929114273859095
v 0.7476212353909777 0 0.269291142738591
v 0.7476212353909777 0 0.269291142738591
v 0.6898787646090223 0.9375 0.293208857261409
v 0.6898787646090223 0.9375 0.293208857261409
v 0.6898787646090223 0 0.2932088572614091
v 0.6898787646090223 0 0.2932088572614091
v 0.75 1.0625 0.3125
v 0.75 1.0625 0.25
v 0.75 0.9375 0.3125
v 0.75 0.9375 0.25
v 0.6875 1.0625 0.3125
v 0.6875 1.0625 0.25
v 0.6875 0.9375 0.3125
v 0.6875 0.9375 0.25
v 0.7408470869120796 0.9375 0.3033470869120796
v 0.7408470869120796 0.9375 0.3033470869120796
v 0.7408470869120796 0 0.3033470869120797
v 0.7408470869120796 0 0.3033470869120797
v 0.6966529130879203 0.9375 0.2591529130879204
v 0.6966529130879203 0.9375 0.2591529130879204
v 0.6966529130879203 0 0.25915291308792043
v 0.6966529130879203 0 0.25915291308792043
v 0.3101212353909777 0.6875 0.45679114273859095
v 0.3101212353909777 0.6875 0.45679114273859095
v 0.3101212353909777 0 0.45679114273859095
v 0.3101212353909777 0 0.45679114273859095
v 0.2523787646090223 0.6875 0.48070885726140905
v 0.2523787646090223 0.6875 0.48070885726140905
v 0.2523787646090223 5.551115123125783e-17 0.4807088572614091
v 0.2523787646090223 5.551115123125783e-17 0.4807088572614091
v 0.3125 0.8125 0.5
v 0.3125 0.8125 0.4375
v 0.3125 0.6875 0.5
v 0.3125 0.6875 0.4375
v 0.25 0.8125 0.5
v 0.25 0.8125 0.4375
v 0.25 0.6875 0.5
v 0.25 0.6875 0.43750000000000006
v 0.3033470869120796 0.6875 0.4908470869120796
v 0.3033470869120796 0.6875 0.4908470869120796
v 0.3033470869120796 0 0.49084708691207957
v 0.3033470869120796 0 0.49084708691207957
v 0.25915291308792043 0.6875 0.4466529130879204
v 0.25915291308792043 0.6875 0.4466529130879204
v 0.2591529130879203 5.551115123125783e-17 0.4466529130879204
v 0.2591529130879203 5.551115123125783e-17 0.4466529130879204
vt 0 1
vt 0 1
vt 0 0.5625
vt 0 0.5625
vt 0 1
vt 0 1
vt 0 0.5625
vt 0 0.5625
vt 0 1
vt 0.21875 1
vt 0 1
vt 0.21875 1
vt 0 1
vt 0.21875 1
vt 0 1
vt 0.21875 1
vt 0.65625 0.125
vt 0.65625 0.5625
vt 0.4375 0.5625
vt 0.4375 0.125
vt 0.65625 0.5625
vt 0.65625 1
vt 0.4375 1
vt 0.4375 0.5625
vt 0 1
vt 0 1
vt 0 0.5625
vt 0 0.5625
vt 0 1
vt 0 1
vt 0 0.5625
vt 0 0.5625
vt 0 1
vt 0.21875 1
vt 0 1
vt 0.21875 1
vt 0 1
vt 0.21875 1
vt 0 1
vt 0.21875 1
vt 0.65625 0.125
vt 0.65625 0.5625
vt 0.4375 0.5625
vt 0.4375 0.125
vt 0.65625 0.5625
vt 0.65625 1
vt 0.4375 1
vt 0.4375 0.5625
vt 0 1
vt 0 1
vt 0 0.5625
vt 0 0.5625
vt 0 1
vt 0 1
vt 0 0.5625
vt 0 0.5625
vt 0 1
vt 0.21875 1
vt 0 1
vt 0.21875 1
vt 0 1
vt 0.21875 1
vt 0 1
vt 0.21875 1
vt 0.65625 0.125
vt 0.65625 0.5625
vt 0.4375 0.5625
vt 0.4375 0.125
vt 0.65625 0.5625
vt 0.65625 1
vt 0.4375 1
vt 0.4375 0.5625
vt 0 1
vt 0 1
vt 0 0.5625
vt 0 0.5625
vt 0 1
vt 0 1
vt 0 0.5625
vt 0 0.5625
vt 0 1
vt 0.21875 1
vt 0 1
vt 0.21875 1
vt 0 1
vt 0.21875 1
vt 0 1
vt 0.21875 1
vt 0.65625 0.125
vt 0.65625 0.5625
vt 0.4375 0.5625
vt 0.4375 0.125
vt 0.65625 0.5625
vt 0.65625 1
vt 0.4375 1
vt 0.4375 0.5625
vt 0 1
vt 0 1
vt 0 0.53125
vt 0 0.53125
vt 0 1
vt 0 1
vt 0 0.53125
vt 0 0.53125
vt 0.03125 1
vt 0 1
vt 0.03125 1
vt 0 1
vt 0.03125 1
vt 0 1
vt 0.03125 1
vt 0 1
vt 1 0
vt 1 0.46875
vt 0.96875 0.46875
vt 0.96875 0
vt 1 0
vt 1 0.46875
vt 0.96875 0.46875
vt 0.96875 0
vt 1 0.9375
vt 1 1
vt 0.96875 1
vt 0.96875 0.9375
vt 1 0.9375
vt 1 1
vt 0.96875 1
vt 0.96875 0.9375
vt 0.03125 0
vt 0.03125 0.03125
vt 0 0.03125
vt 0 0
vt 0.03125 0
vt 0.03125 0.03125
vt 0 0.03125
vt 0 0
vt 1 0.9375
vt 1 1
vt 0.96875 1
vt 0.96875 0.9375
vt 1 0.9375
vt 1 1
vt 0.96875 1
vt 0.96875 0.9375
vt 0 1
vt 0 1
vt 0 0.53125
vt 0 0.53125
vt 0 1
vt 0 1
vt 0 0.53125
vt 0 0.53125
vt 0.03125 1
vt 0 1
vt 0.03125 1
vt 0 1
vt 0.03125 1
vt 0 1
vt 0.03125 1
vt 0 1
vt 1 0
vt 1 0.46875
vt 0.96875 0.46875
vt 0.96875 0
vt 1 0
vt 1 0.46875
vt 0.96875 0.46875
vt 0.96875 0
vt 0 1
vt 0 1
vt 0 0.53125
vt 0 0.53125
vt 0 1
vt 0 1
vt 0 0.53125
vt 0 0.53125
vt 0.03125 1
vt 0 1
vt 0.03125 1
vt 0 1
vt 0.03125 1
vt 0 1
vt 0.03125 1
vt 0 1
vt 1 0
vt 1 0.46875
vt 0.96875 0.46875
vt 0.96875 0
vt 1 0
vt 1 0.46875
vt 0.96875 0.46875
vt 0.96875 0
vt 1 0.9375
vt 1 1
vt 0.96875 1
vt 0.96875 0.9375
vt 1 0.9375
vt 1 1
vt 0.96875 1
vt 0.96875 0.9375
vt 0.03125 0
vt 0.03125 0.03125
vt 0 0.03125
vt 0 0
vt 0.03125 0
vt 0.03125 0.03125
vt 0 0.03125
vt 0 0
vt 1 0.9375
vt 1 1
vt 0.96875 1
vt 0.96875 0.9375
vt 1 0.9375
vt 1 1
vt 0.96875 1
vt 0.96875 0.9375
vt 0 1
vt 0 1
vt 0 0.53125
vt 0 0.53125
vt 0 1
vt 0 1
vt 0 0.53125
vt 0 0.53125
vt 0.03125 1
vt 0 1
vt 0.03125 1
vt 0 1
vt 0.03125 1
vt 0 1
vt 0.03125 1
vt 0 1
vt 1 0
vt 1 0.46875
vt 0.96875 0.46875
vt 0.96875 0
vt 1 0
vt 1 0.46875
vt 0.96875 0.46875
vt 0.96875 0
vn 0 0 0
vn 0 0 0
vn 0 0 0
vn 0 0 0
vn -0.7071067811865476 8.65956056235493e-17 -0.7071067811865475
vn 0.7071067811865476 -8.65956056235493e-17 0.7071067811865475
vn 0 0 0
vn 0 0 0
vn 0 0 0
vn 0 0 0
vn 0.7071067811865476 9.101355709454618e-17 -0.7071067811865475
vn -0.7071067811865476 -5.929289924811311e-17 0.7071067811865475
vn 0 0 0
vn 0 0 0
vn 0 0 0
vn 0 0 0
vn -2.220446049250313e-16 -1.211401715771915e-16 -1
vn 2.220446049250313e-16 1.6599995611101367e-16 1
vn 0 0 0
vn 0 0 0
vn 0 0 0
vn 0 0 0
vn 1 -1.9305928822816095e-17 3.885780586188048e-16
vn -1 4.173582108972717e-17 -2.775557561562892e-16
vn 0 0 0
vn 0 0 0
vn 0 0 0
vn 0 0 0
vn 0.3826834323650897 -6.879831937820205e-18 0.9238795325112867
vn -0.3826834323650897 -1.5779579142409474e-17 -0.9238795325112867
vn 1 -8.659560562354932e-17 2.220446049250313e-16
vn -1 8.659560562354932e-17 -2.220446049250313e-16
vn 8.65956056235493e-17 1 3.586907429118598e-17
vn -8.65956056235493e-17 -1 -3.586907429118598e-17
vn 3.885780586188048e-16 -3.5869074291186004e-17 1
vn -3.885780586188048e-16 3.5869074291186004e-17 -1
vn 0 0 0
vn 0 0 0
vn 0 0 0
vn 0 0 0
vn -0.7071067811865475 3.586907429118598e-17 0.7071067811865476
vn 0.7071067811865475 -3.586907429118598e-17 -0.7071067811865476
vn 0 0 0
vn 0 0 0
vn 0 0 0
vn 0 0 0
vn 0.38268343236509 -7.129745350284985e-18 0.9238795325112868
vn -0.38268343236509 7.129745350284985e-18 -0.9238795325112868
vn 1 -8.659560562354933e-17 3.3306690738754706e-16
vn -1 8.659560562354932e-17 2.775557561562892e-16
vn 8.65956056235493e-17 1 3.586907429118598e-17
vn -8.65956056235493e-17 -1 -3.586907429118598e-17
vn 3.885780586188048e-16 2.781494174455691e-16 1
vn 2.220446049250313e-16 -2.78149417445569e-16 -1
vn 0 0 0
vn 0 0 0
vn 0 0 0
vn 0 0 0
vn -0.7071067811865471 -4.502672058819715e-18 0.7071067811865479
vn 0.7071067811865471 4.502672058819715e-18 -0.7071067811865479
usemtl m_1e949a27-f74d-1f28-549f-2cd51f56c4cb
f 2/1/1 1/2/1 4/3/1 3/4/1
f 5/5/2 6/6/2 7/7/2 8/8/2
f 2/9/3 6/10/3 1/11/3 5/12/3
f 3/13/4 7/14/4 4/15/4 8/16/4
f 3/17/5 1/18/5 5/19/5 7/20/5
f 8/21/6 6/22/6 2/23/6 4/24/6
f 10/25/7 9/26/7 12/27/7 11/28/7
f 13/29/8 14/30/8 15/31/8 16/32/8
f 10/33/9 14/34/9 9/35/9 13/36/9
f 11/37/10 15/38/10 12/39/10 16/40/10
f 11/41/11 9/42/11 13/43/11 15/44/11
f 16/45/12 14/46/12 10/47/12 12/48/12
f 18/49/13 17/50/13 20/51/13 19/52/13
f 21/53/14 22/54/14 23/55/14 24/56/14
f 18/57/15 22/58/15 17/59/15 21/60/15
f 19/61/16 23/62/16 20/63/16 24/64/16
f 19/65/17 17/66/17 21/67/17 23/68/17
f 24/69/18 22/70/18 18/71/18 20/72/18
f 26/73/19 25/74/19 28/75/19 27/76/19
f 29/77/20 30/78/20 31/79/20 32/80/20
f 26/81/21 30/82/21 25/83/21 29/84/21
f 27/85/22 31/86/22 28/87/22 32/88/22
f 27/89/23 25/90/23 29/91/23 31/92/23
f 32/93/24 30/94/24 26/95/24 28/96/24
f 34/97/25 33/98/25 36/99/25 35/100/25
f 37/101/26 38/102/26 39/103/26 40/104/26
f 34/105/27 38/106/27 33/107/27 37/108/27
f 35/109/28 39/110/28 36/111/28 40/112/28
f 35/113/29 33/114/29 37/115/29 39/116/29
f 40/117/30 38/118/30 34/119/30 36/120/30
f 44/121/31 42/122/31 41/123/31 43/124/31
f 47/125/32 45/126/32 46/127/32 48/128/32
f 41/129/33 42/130/33 46/131/33 45/132/33
f 44/133/34 43/134/34 47/135/34 48/136/34
f 43/137/35 41/138/35 45/139/35 47/140/35
f 48/141/36 46/142/36 42/143/36 44/144/36
f 50/145/37 49/146/37 52/147/37 51/148/37
f 53/149/38 54/150/38 55/151/38 56/152/38
f 50/153/39 54/154/39 49/155/39 53/156/39
f 51/157/40 55/158/40 52/159/40 56/160/40
f 51/161/41 49/162/41 53/163/41 55/164/41
f 56/165/42 54/166/42 50/167/42 52/168/42
f 58/169/43 57/170/43 60/171/43 59/172/43
f 61/173/44 62/174/44 63/175/44 64/176/44
f 58/177/45 62/178/45 57/179/45 61/180/45
f 59/181/46 63/182/46 60/183/46 64/184/46
f 59/185/47 57/186/47 61/187/47 63/188/47
f 64/189/48 62/190/48 58/191/48 60/192/48
f 68/193/49 66/194/49 65/195/49 67/196/49
f 71/197/50 69/198/50 70/199/50 72/200/50
f 65/201/51 66/202/51 70/203/51 69/204/51
f 68/205/52 67/206/52 71/207/52 72/208/52
f 67/209/53 65/210/53 69/211/53 71/212/53
f 72/213/54 70/214/54 66/215/54 68/216/54
f 74/217/55 73/218/55 76/219/55 75/220/55
f 77/221/56 78/222/56 79/223/56 80/224/56
f 74/225/57 78/226/57 73/227/57 77/228/57
f 75/229/58 79/230/58 76/231/58 80/232/58
f 75/233/59 73/234/59 77/235/59 79/236/59
f 80/237/60 78/238/60 74/239/60 76/240/60