# Made in Blockbench 4.10.0
mtllib field_horsetail_2.mtl

o cube
v 0.5 1 0.3125
v 0.5 1 0.3125
v 0.5 0 0.3125
v 0.5 0 0.3125
v 0.49999999999999994 1 0.75
v 0.49999999999999994 1 0.75
v 0.49999999999999994 0 0.75
v 0.49999999999999994 0 0.75
v 0.32322330470336325 1 0.38572330470336325
v 0.32322330470336325 1 0.38572330470336325
v 0.32322330470336313 5.551115123125783e-17 0.385723304703363
v 0.32322330470336313 5.551115123125783e-17 0.385723304703363
v 0.6325825214724777 1 0.6950825214724778
v 0.6325825214724777 1 0.6950825214724778
v 0.6325825214724776 0 0.6950825214724776
v 0.6325825214724776 0 0.6950825214724776
v 0.3453203916154428 1 0.6859296083845572
v 0.3453203916154428 1 0.6859296083845572
v 0.3453203916154427 5.551115123125783e-17 0.6859296083845574
v 0.3453203916154427 5.551115123125783e-17 0.6859296083845574
v 0.6546796083845573 1 0.3765703916154426
v 0.6546796083845573 1 0.3765703916154426
v 0.6546796083845572 0 0.3765703916154428
v 0.6546796083845572 0 0.3765703916154428
v 0.28124999999999994 1 0.5312499999999999
v 0.28124999999999994 1 0.5312499999999999
v 0.28125000000000006 0 0.5312500000000001
v 0.28125000000000006 0 0.5312500000000001
v 0.71875 1 0.5312499999999999
v 0.71875 1 0.5312499999999999
v 0.71875 0 0.5312500000000001
v 0.71875 0 0.5312500000000001
vt 0 1
vt 0 1
vt 0 0.5
vt 0 0.5
vt 0 1
vt 0 1
vt 0 0.5
vt 0 0.5
vt 0 1
vt 0.21875 1
vt 0 1
vt 0.21875 1
vt 0 1
vt 0.21875 1
vt 0 1
vt 0.21875 1
vt 0.4375 0.5
vt 0.4375 1
vt 0.21875 1
vt 0.21875 0.5
vt 0.21875 0.5
vt 0.21875 1
vt 0 1
vt 0 0.5
vt 0 1
vt 0 1
vt 0 0.5
vt 0 0.5
vt 0 1
vt 0 1
vt 0 0.5
vt 0 0.5
vt 0 1
vt 0 1
vt 0.21875 1
vt 0.21875 1
vt 0 1
vt 0 1
vt 0.21875 1
vt 0.21875 1
vt 0.4375 0.5
vt 0.4375 1
vt 0.21875 1
vt 0.21875 0.5
vt 0.21875 0.5
vt 0.21875 1
vt 0 1
vt 0 0.5
vt 0 1
vt 0 1
vt 0 0.5
vt 0 0.5
vt 0 1
vt 0 1
vt 0 0.5
vt 0 0.5
vt 0 1
vt 0.21875 1
vt 0 1
vt 0.21875 1
vt 0 1
vt 0.21875 1
vt 0 1
vt 0.21875 1
vt 0.4375 0.5
vt 0.4375 1
vt 0.21875 1
vt 0.21875 0.5
vt 0.21875 0.5
vt 0.21875 1
vt 0 1
vt 0 0.5
vt 0 1
vt 0 1
vt 0 0.5
vt 0 0.5
vt 0 1
vt 0 1
vt 0 0.5
vt 0 0.5
vt 0 1
vt 0.21875 1
vt 0 1
vt 0.21875 1
vt 0 1
vt 0.21875 1
vt 0 1
vt 0.21875 1
vt 0.4375 0.5
vt 0.4375 1
vt 0.21875 1
vt 0.21875 0.5
vt 0.21875 0.5
vt 0.21875 1
vt 0 1
vt 0 0.5
vn 0 0 0
vn 0 0 0
vn 0 0 0
vn 0 0 0
vn 1 0 2.220446049250313e-16
vn -1 0 -2.220446049250313e-16
vn 0 0 0
vn 0 0 0
vn 0 0 0
vn 0 0 0
vn 0.7071067811865476 7.850462293418878e-17 -0.7071067811865475
vn -0.7071067811865476 -7.850462293418878e-17 0.7071067811865475
vn 0 0 0
vn 0 0 0
vn 0 0 0
vn 0 0 0
vn -0.7071067811865477 -7.850462293418866e-17 -0.7071067811865474
vn 0.7071067811865477 7.850462293418866e-17 0.7071067811865474
vn 0 0 0
vn 0 0 0
vn 0 0 0
vn 0 0 0
vn 0 -1.2490009027033014e-16 -1
vn 0 1.2490009027033014e-16 1
usemtl m_1e949a27-f74d-1f28-549f-2cd51f56c4cb
f 2/1/1 1/2/1 4/3/1 3/4/1
f 5/5/2 6/6/2 7/7/2 8/8/2
f 2/9/3 6/10/3 1/11/3 5/12/3
f 3/13/4 7/14/4 4/15/4 8/16/4
f 3/17/5 1/18/5 5/19/5 7/20/5
f 8/21/6 6/22/6 2/23/6 4/24/6
f 10/25/7 9/26/7 12/27/7 11/28/7
f 13/29/8 14/30/8 15/31/8 16/32/8
f 9/33/9 10/34/9 14/35/9 13/36/9
f 12/37/10 11/38/10 15/39/10 16/40/10
f 11/41/11 9/42/11 13/43/11 15/44/11
f 16/45/12 14/46/12 10/47/12 12/48/12
f 18/49/13 17/50/13 20/51/13 19/52/13
f 21/53/14 22/54/14 23/55/14 24/56/14
f 18/57/15 22/58/15 17/59/15 21/60/15
f 19/61/16 23/62/16 20/63/16 24/64/16
f 19/65/17 17/66/17 21/67/17 23/68/17
f 24/69/18 22/70/18 18/71/18 20/72/18
f 26/73/19 25/74/19 28/75/19 27/76/19
f 29/77/20 30/78/20 31/79/20 32/80/20
f 26/81/21 30/82/21 25/83/21 29/84/21
f 27/85/22 31/86/22 28/87/22 32/88/22
f 27/89/23 25/90/23 29/91/23 31/92/23
f 32/93/24 30/94/24 26/95/24 28/96/24