# Made in Blockbench 4.10.0
mtllib field_horsetail_1.mtl

o cube
v 0.6875 1 0.5625
v 0.6875 1 0.5625
v 0.6875 0 0.5625
v 0.6875 0 0.5625
v 0.6875 1 1
v 0.6875 1 1
v 0.6875 0 1
v 0.6875 0 1
v 0.25 0.875 0.1875
v 0.25 0.875 0.1875
v 0.25 0 0.1875
v 0.25 0 0.1875
v 0.24999999999999994 0.875 0.625
v 0.24999999999999994 0.875 0.625
v 0.24999999999999994 0 0.625
v 0.24999999999999994 0 0.625
v 0.4687499999999999 1 0.78125
v 0.4687499999999999 1 0.78125
v 0.46875 0 0.7812500000000001
v 0.46875 0 0.7812500000000001
v 0.90625 1 0.78125
v 0.90625 1 0.78125
v 0.90625 0 0.7812500000000001
v 0.90625 0 0.7812500000000001
v 0.5328203916154428 1 0.9359296083845572
v 0.5328203916154428 1 0.9359296083845572
v 0.5328203916154427 5.551115123125783e-17 0.9359296083845574
v 0.5328203916154427 5.551115123125783e-17 0.9359296083845574
v 0.8421796083845573 1 0.6265703916154426
v 0.8421796083845573 1 0.6265703916154426
v 0.8421796083845572 0 0.6265703916154428
v 0.8421796083845572 0 0.6265703916154428
v 0.5107233047033631 1 0.6357233047033632
v 0.5107233047033631 1 0.6357233047033632
v 0.510723304703363 5.551115123125783e-17 0.635723304703363
v 0.510723304703363 5.551115123125783e-17 0.635723304703363
v 0.8200825214724777 1 0.9450825214724778
v 0.8200825214724777 1 0.9450825214724778
v 0.8200825214724776 0 0.9450825214724776
v 0.8200825214724776 0 0.9450825214724776
v 0.03124999999999989 0.875 0.40624999999999994
v 0.03124999999999989 0.875 0.40624999999999994
v 0.03125000000000011 0 0.40625000000000006
v 0.03125000000000011 0 0.40625000000000006
v 0.4687499999999999 0.875 0.40624999999999994
v 0.4687499999999999 0.875 0.40624999999999994
v 0.46875 0 0.40625000000000006
v 0.46875 0 0.40625000000000006
v 0.07322330470336313 0.875 0.26072330470336325
v 0.07322330470336313 0.875 0.26072330470336325
v 0.07322330470336313 5.551115123125783e-17 0.26072330470336313
v 0.07322330470336313 5.551115123125783e-17 0.26072330470336313
v 0.3825825214724777 0.875 0.5700825214724778
v 0.3825825214724777 0.875 0.5700825214724778
v 0.38258252147247757 0 0.5700825214724776
v 0.38258252147247757 0 0.5700825214724776
v 0.09532039161544292 0.875 0.5609296083845573
v 0.09532039161544292 0.875 0.5609296083845573
v 0.0953203916154427 0 0.5609296083845573
v 0.0953203916154427 0 0.5609296083845573
v 0.40467960838455724 0.875 0.2515703916154427
v 0.40467960838455724 0.875 0.2515703916154427
v 0.4046796083845572 0 0.2515703916154427
v 0.4046796083845572 0 0.2515703916154427
v 0.6158470869120796 0.9375 0.3658470869120797
v 0.6158470869120796 0.9375 0.3658470869120797
v 0.6158470869120796 0 0.3658470869120797
v 0.6158470869120796 0 0.3658470869120797
v 0.5716529130879204 0.9375 0.32165291308792043
v 0.5716529130879204 0.9375 0.32165291308792043
v 0.5716529130879204 0 0.32165291308792043
v 0.5716529130879204 0 0.32165291308792043
v 0.6226212353909777 0.9375 0.331791142738591
v 0.6226212353909777 0.9375 0.331791142738591
v 0.6226212353909777 0 0.331791142738591
v 0.6226212353909777 0 0.331791142738591
v 0.5648787646090223 0.9375 0.3557088572614091
v 0.5648787646090223 0.9375 0.3557088572614091
v 0.5648787646090223 0 0.3557088572614091
v 0.5648787646090223 0 0.3557088572614091
v 0.625 1.0625 0.37500000000000006
v 0.625 1.0625 0.31250000000000006
v 0.625 0.9375 0.37500000000000006
v 0.625 0.9375 0.31250000000000006
v 0.5625 1.0625 0.375
v 0.5625 1.0625 0.3125
v 0.5625 0.9375 0.375
v 0.5625 0.9375 0.3125
vt 0 1
vt 0 1
vt 0 0.5
vt 0 0.5
vt 0 1
vt 0 1
vt 0 0.5
vt 0 0.5
vt 0 1
vt 0.21875 1
vt 0 1
vt 0.21875 1
vt 0 1
vt 0.21875 1
vt 0 1
vt 0.21875 1
vt 0.4375 0.5
vt 0.4375 1
vt 0.21875 1
vt 0.21875 0.5
vt 0.21875 0.5
vt 0.21875 1
vt 0 1
vt 0 0.5
vt 0 1
vt 0 1
vt 0 0.5625
vt 0 0.5625
vt 0 1
vt 0 1
vt 0 0.5625
vt 0 0.5625
vt 0 1
vt 0.21875 1
vt 0 1
vt 0.21875 1
vt 0 1
vt 0.21875 1
vt 0 1
vt 0.21875 1
vt 0.65625 0.125
vt 0.65625 0.5625
vt 0.4375 0.5625
vt 0.4375 0.125
vt 0.65625 0.5625
vt 0.65625 1
vt 0.4375 1
vt 0.4375 0.5625
vt 0 1
vt 0 1
vt 0 0.5
vt 0 0.5
vt 0 1
vt 0 1
vt 0 0.5
vt 0 0.5
vt 0 1
vt 0 1
vt 0.21875 1
vt 0.21875 1
vt 0 1
vt 0 1
vt 0.21875 1
vt 0.21875 1
vt 0.4375 0.5
vt 0.4375 1
vt 0.21875 1
vt 0.21875 0.5
vt 0.21875 0.5
vt 0.21875 1
vt 0 1
vt 0 0.5
vt 0 1
vt 0 1
vt 0 0.5
vt 0 0.5
vt 0 1
vt 0 1
vt 0 0.5
vt 0 0.5
vt 0 1
vt 0.21875 1
vt 0 1
vt 0.21875 1
vt 0 1
vt 0.21875 1
vt 0 1
vt 0.21875 1
vt 0.4375 0.5
vt 0.4375 1
vt 0.21875 1
vt 0.21875 0.5
vt 0.21875 0.5
vt 0.21875 1
vt 0 1
vt 0 0.5
vt 0 1
vt 0 1
vt 0 0.5
vt 0 0.5
vt 0 1
vt 0 1
vt 0 0.5
vt 0 0.5
vt 0 1
vt 0 1
vt 0.21875 1
vt 0.21875 1
vt 0 1
vt 0 1
vt 0.21875 1
vt 0.21875 1
vt 0.4375 0.5
vt 0.4375 1
vt 0.21875 1
vt 0.21875 0.5
vt 0.21875 0.5
vt 0.21875 1
vt 0 1
vt 0 0.5
vt 0 1
vt 0 1
vt 0 0.5625
vt 0 0.5625
vt 0 1
vt 0 1
vt 0 0.5625
vt 0 0.5625
vt 0 1
vt 0.21875 1
vt 0 1
vt 0.21875 1
vt 0 1
vt 0.21875 1
vt 0 1
vt 0.21875 1
vt 0.65625 0.125
vt 0.65625 0.5625
vt 0.4375 0.5625
vt 0.4375 0.125
vt 0.65625 0.5625
vt 0.65625 1
vt 0.4375 1
vt 0.4375 0.5625
vt 0 1
vt 0 1
vt 0 0.5625
vt 0 0.5625
vt 0 1
vt 0 1
vt 0 0.5625
vt 0 0.5625
vt 0 1
vt 0.21875 1
vt 0 1
vt 0.21875 1
vt 0 1
vt 0.21875 1
vt 0 1
vt 0.21875 1
vt 0.65625 0.125
vt 0.65625 0.5625
vt 0.4375 0.5625
vt 0.4375 0.125
vt 0.65625 0.5625
vt 0.65625 1
vt 0.4375 1
vt 0.4375 0.5625
vt 0 1
vt 0 1
vt 0 0.5625
vt 0 0.5625
vt 0 1
vt 0 1
vt 0 0.5625
vt 0 0.5625
vt 0 1
vt 0.21875 1
vt 0 1
vt 0.21875 1
vt 0 1
vt 0.21875 1
vt 0 1
vt 0.21875 1
vt 0.65625 0.125
vt 0.65625 0.5625
vt 0.4375 0.5625
vt 0.4375 0.125
vt 0.65625 0.5625
vt 0.65625 1
vt 0.4375 1
vt 0.4375 0.5625
vt 0 1
vt 0 1
vt 0 0.53125
vt 0 0.53125
vt 0 1
vt 0 1
vt 0 0.53125
vt 0 0.53125
vt 0.03125 1
vt 0 1
vt 0.03125 1
vt 0 1
vt 0.03125 1
vt 0 1
vt 0.03125 1
vt 0 1
vt 1 0
vt 1 0.46875
vt 0.96875 0.46875
vt 0.96875 0
vt 1 0
vt 1 0.46875
vt 0.96875 0.46875
vt 0.96875 0
vt 0 1
vt 0 1
vt 0 0.53125
vt 0 0.53125
vt 0 1
vt 0 1
vt 0 0.53125
vt 0 0.53125
vt 0.03125 1
vt 0 1
vt 0.03125 1
vt 0 1
vt 0.03125 1
vt 0 1
vt 0.03125 1
vt 0 1
vt 1 0
vt 1 0.46875
vt 0.96875 0.46875
vt 0.96875 0
vt 1 0
vt 1 0.46875
vt 0.96875 0.46875
vt 0.96875 0
vt 1 0.9375
vt 1 1
vt 0.96875 1
vt 0.96875 0.9375
vt 1 0.9375
vt 1 1
vt 0.96875 1
vt 0.96875 0.9375
vt 0.03125 0
vt 0.03125 0.03125
vt 0 0.03125
vt 0 0
vt 0.03125 0
vt 0.03125 0.03125
vt 0 0.03125
vt 0 0
vt 1 0.9375
vt 1 1
vt 0.96875 1
vt 0.96875 0.9375
vt 1 0.9375
vt 1 1
vt 0.96875 1
vt 0.96875 0.9375
vn 0 0 0
vn 0 0 0
vn 0 0 0
vn 0 0 0
vn 1 0 2.220446049250313e-16
vn -1 0 -2.220446049250313e-16
vn 0 0 0
vn 0 0 0
vn 0 0 0
vn 0 0 0
vn 1 0 2.220446049250313e-16
vn -1 0 -2.220446049250313e-16
vn 0 0 0
vn 0 0 0
vn 0 0 0
vn 0 0 0
vn 3.1720657846433055e-17 -1.1102230246251568e-16 -1
vn -3.1720657846433055e-17 1.1102230246251568e-16 1
vn 0 0 0
vn 0 0 0
vn 0 0 0
vn 0 0 0
vn -0.7071067811865477 -7.850462293418867e-17 -0.7071067811865474
vn 0.7071067811865477 7.850462293418867e-17 0.7071067811865474
vn 0 0 0
vn 0 0 0
vn 0 0 0
vn 0 0 0
vn 0.7071067811865475 7.85046229341888e-17 -0.7071067811865476
vn -0.7071067811865475 -7.85046229341888e-17 0.7071067811865476
vn 0 0 0
vn 0 0 0
vn 0 0 0
vn 0 0 0
vn -3.172065784643303e-17 -1.2688263138573227e-16 -1
vn 3.172065784643303e-17 1.268826313857322e-16 1
vn 0 0 0
vn 0 0 0
vn 0 0 0
vn 0 0 0
vn 0.7071067811865476 8.971956906764432e-17 -0.7071067811865476
vn -0.7071067811865475 -6.72896768007333e-17 0.7071067811865477
vn 0 0 0
vn 0 0 0
vn 0 0 0
vn 0 0 0
vn -0.7071067811865477 1.7943913813528864e-16 -0.7071067811865474
vn 0.7071067811865478 -4.485978453382217e-17 0.7071067811865474
vn 0 0 0
vn 0 0 0
vn 0 0 0
vn 0 0 0
vn -0.7071067811865478 0 0.7071067811865474
vn 0.7071067811865478 0 -0.7071067811865474
vn 0 0 0
vn 0 0 0
vn 0 0 0
vn 0 0 0
vn 0.3826834323650895 0 0.9238795325112871
vn -0.3826834323650895 0 -0.9238795325112871
vn 1 0 0
vn -1 0 -2.220446049250313e-16
vn 0 1 0
vn 0 -1 0
vn -2.220446049250313e-16 0 1
vn 2.220446049250313e-16 0 -1
usemtl m_1e949a27-f74d-1f28-549f-2cd51f56c4cb
f 2/1/1 1/2/1 4/3/1 3/4/1
f 5/5/2 6/6/2 7/7/2 8/8/2
f 2/9/3 6/10/3 1/11/3 5/12/3
f 3/13/4 7/14/4 4/15/4 8/16/4
f 3/17/5 1/18/5 5/19/5 7/20/5
f 8/21/6 6/22/6 2/23/6 4/24/6
f 10/25/7 9/26/7 12/27/7 11/28/7
f 13/29/8 14/30/8 15/31/8 16/32/8
f 10/33/9 14/34/9 9/35/9 13/36/9
f 11/37/10 15/38/10 12/39/10 16/40/10
f 11/41/11 9/42/11 13/43/11 15/44/11
f 16/45/12 14/46/12 10/47/12 12/48/12
f 18/49/13 17/50/13 20/51/13 19/52/13
f 21/53/14 22/54/14 23/55/14 24/56/14
f 17/57/15 18/58/15 22/59/15 21/60/15
f 20/61/16 19/62/16 23/63/16 24/64/16
f 19/65/17 17/66/17 21/67/17 23/68/17
f 24/69/18 22/70/18 18/71/18 20/72/18
f 26/73/19 25/74/19 28/75/19 27/76/19
f 29/77/20 30/78/20 31/79/20 32/80/20
f 26/81/21 30/82/21 25/83/21 29/84/21
f 27/85/22 31/86/22 28/87/22 32/88/22
f 27/89/23 25/90/23 29/91/23 31/92/23
f 32/93/24 30/94/24 26/95/24 28/96/24
f 34/97/25 33/98/25 36/99/25 35/100/25
f 37/101/26 38/102/26 39/103/26 40/104/26
f 33/105/27 34/106/27 38/107/27 37/108/27
f 36/109/28 35/110/28 39/111/28 40/112/28
f 35/113/29 33/114/29 37/115/29 39/116/29
f 40/117/30 38/118/30 34/119/30 36/120/30
f 42/121/31 41/122/31 44/123/31 43/124/31
f 45/125/32 46/126/32 47/127/32 48/128/32
f 42/129/33 46/130/33 41/131/33 45/132/33
f 43/133/34 47/134/34 44/135/34 48/136/34
f 43/137/35 41/138/35 45/139/35 47/140/35
f 48/141/36 46/142/36 42/143/36 44/144/36
f 50/145/37 49/146/37 52/147/37 51/148/37
f 53/149/38 54/150/38 55/151/38 56/152/38
f 50/153/39 54/154/39 49/155/39 53/156/39
f 51/157/40 55/158/40 52/159/40 56/160/40
f 51/161/41 49/162/41 53/163/41 55/164/41
f 56/165/42 54/166/42 50/167/42 52/168/42
f 58/169/43 57/170/43 60/171/43 59/172/43
f 61/173/44 62/174/44 63/175/44 64/176/44
f 58/177/45 62/178/45 57/179/45 61/180/45
f 59/181/46 63/182/46 60/183/46 64/184/46
f 59/185/47 57/186/47 61/187/47 63/188/47
f 64/189/48 62/190/48 58/191/48 60/192/48
f 66/193/49 65/194/49 68/195/49 67/196/49
f 69/197/50 70/198/50 71/199/50 72/200/50
f 66/201/51 70/202/51 65/203/51 69/204/51
f 67/205/52 71/206/52 68/207/52 72/208/52
f 67/209/53 65/210/53 69/211/53 71/212/53
f 72/213/54 70/214/54 66/215/54 68/216/54
f 74/217/55 73/218/55 76/219/55 75/220/55
f 77/221/56 78/222/56 79/223/56 80/224/56
f 74/225/57 78/226/57 73/227/57 77/228/57
f 75/229/58 79/230/58 76/231/58 80/232/58
f 75/233/59 73/234/59 77/235/59 79/236/59
f 80/237/60 78/238/60 74/239/60 76/240/60
f 84/241/61 82/242/61 81/243/61 83/244/61
f 87/245/62 85/246/62 86/247/62 88/248/62
f 81/249/63 82/250/63 86/251/63 85/252/63
f 84/253/64 83/254/64 87/255/64 88/256/64
f 83/257/65 81/258/65 85/259/65 87/260/65
f 88/261/66 86/262/66 82/263/66 84/264/66