# Made in Blockbench 4.10.3
mtllib neuropteris_shoot.mtl

o cube
v 0.5625 0.6875 0.5625
v 0.5625 0.6875 0.4375
v 0.5625 0 0.5625
v 0.5625 0 0.4375
v 0.4375 0.6875 0.5625
v 0.4375 0.6875 0.4375
v 0.4375 0 0.5625
v 0.4375 0 0.4375
v 1.516465997955662 2.875 1.516465997955662
v 1.516465997955662 2.875 1.516465997955662
v 1.516465997955662 -0.125 1.516465997955662
v 1.516465997955662 -0.125 1.516465997955662
v -0.5164659979556621 2.875 -0.5164659979556621
v -0.5164659979556621 2.875 -0.5164659979556621
v -0.5164659979556621 -0.125 -0.5164659979556621
v -0.5164659979556621 -0.125 -0.5164659979556621
v -0.5164659979556618 2.875 1.516465997955662
v -0.5164659979556618 2.875 1.516465997955662
v -0.5164659979556623 -0.125 1.516465997955662
v -0.5164659979556623 -0.125 1.516465997955662
v 1.5164659979556623 2.875 -0.5164659979556621
v 1.5164659979556623 2.875 -0.5164659979556621
v 1.5164659979556618 -0.125 -0.5164659979556621
v 1.5164659979556618 -0.125 -0.5164659979556621
v 0.5000000000000003 2.875 -0.9375
v 0.5000000000000003 2.875 -0.9375
v 0.5000000000000003 -0.125 -0.9375
v 0.5000000000000003 -0.125 -0.9375
v 0.49999999999999967 2.875 1.9375
v 0.49999999999999967 2.875 1.9375
v 0.49999999999999967 -0.125 1.9375
v 0.49999999999999967 -0.125 1.9375
v 1.9375 2.875 0.5
v 1.9375 2.875 0.5
v 1.9375 -0.125 0.5
v 1.9375 -0.125 0.5
v -0.9375 2.875 0.5
v -0.9375 2.875 0.5
v -0.9375 -0.125 0.5
v -0.9375 -0.125 0.5
vt 0.03125 0.5390625
vt 0.03125 0.625
vt 0.015625 0.625
vt 0.015625 0.5390625
vt 0.0625 0.5390625
vt 0.0625 0.625
vt 0.046875 0.625
vt 0.046875 0.5390625
vt 0.0625 0.625
vt 0.0625 0.609375
vt 0.078125 0.609375
vt 0.078125 0.625
vt 0.046875 0.5234375
vt 0.046875 0.5390625
vt 0.0625 0.5390625
vt 0.0625 0.5234375
vt 0.046875 0.5390625
vt 0.046875 0.625
vt 0.03125 0.625
vt 0.03125 0.5390625
vt 0.015625 0.5390625
vt 0.015625 0.625
vt 0 0.625
vt 0 0.5390625
vt 0 1
vt 0 1
vt 0 0.625
vt 0 0.625
vt 0 1
vt 0 1
vt 0 0.625
vt 0 0.625
vt 0 1
vt 0.359375 1
vt 0 1
vt 0.359375 1
vt 0 1
vt 0.359375 1
vt 0 1
vt 0.359375 1
vt 0.71875 0.625
vt 0.71875 1
vt 0.359375 1
vt 0.359375 0.625
vt 0.359375 0.625
vt 0.359375 1
vt 0 1
vt 0 0.625
vt 0 1
vt 0 1
vt 0 0.625
vt 0 0.625
vt 0 1
vt 0 1
vt 0 0.625
vt 0 0.625
vt 0 1
vt 0.359375 1
vt 0 1
vt 0.359375 1
vt 0 1
vt 0.359375 1
vt 0 1
vt 0.359375 1
vt 0.71875 0.625
vt 0.71875 1
vt 0.359375 1
vt 0.359375 0.625
vt 0.359375 0.625
vt 0.359375 1
vt 0 1
vt 0 0.625
vt 0 1
vt 0 1
vt 0 0.625
vt 0 0.625
vt 0 1
vt 0 1
vt 0 0.625
vt 0 0.625
vt 0 1
vt 0.359375 1
vt 0 1
vt 0.359375 1
vt 0 1
vt 0.359375 1
vt 0 1
vt 0.359375 1
vt 0.71875 0.625
vt 0.71875 1
vt 0.359375 1
vt 0.359375 0.625
vt 0.359375 0.625
vt 0.359375 1
vt 0 1
vt 0 0.625
vt 0 1
vt 0 1
vt 0 0.625
vt 0 0.625
vt 0 1
vt 0 1
vt 0 0.625
vt 0 0.625
vt 0 1
vt 0.359375 1
vt 0 1
vt 0.359375 1
vt 0 1
vt 0.359375 1
vt 0 1
vt 0.359375 1
vt 0.71875 0.625
vt 0.71875 1
vt 0.359375 1
vt 0.359375 0.625
vt 0.359375 0.625
vt 0.359375 1
vt 0 1
vt 0 0.625
vn 1 0 0
vn -1 0 0
vn 0 1 0
vn 0 -1 0
vn 0 0 1
vn 0 0 -1
vn 0 0 0
vn 0 0 0
vn 0 0 0
vn 0 0 0
vn -0.7071067811865476 0 0.7071067811865476
vn 0.7071067811865476 0 -0.7071067811865476
vn 0 0 0
vn 0 0 0
vn 0 0 0
vn 0 0 0
vn -0.7071067811865476 1.0467283057891836e-16 -0.7071067811865476
vn 0.7071067811865476 -1.0467283057891836e-16 0.7071067811865476
vn 0 0 0
vn 0 0 0
vn 0 0 0
vn 0 0 0
vn 1 0 2.220446049250313e-16
vn -1 0 -2.220446049250313e-16
vn 0 0 0
vn 0 0 0
vn 0 0 0
vn 0 0 0
vn 0 0 1
vn 0 0 -1
usemtl m_907b88b0-74fb-bb5b-8a4b-2af6f27b30ee
f 4/1/1 2/2/1 1/3/1 3/4/1
f 7/5/2 5/6/2 6/7/2 8/8/2
f 1/9/3 2/10/3 6/11/3 5/12/3
f 4/13/4 3/14/4 7/15/4 8/16/4
f 3/17/5 1/18/5 5/19/5 7/20/5
f 8/21/6 6/22/6 2/23/6 4/24/6
f 10/25/7 9/26/7 12/27/7 11/28/7
f 13/29/8 14/30/8 15/31/8 16/32/8
f 10/33/9 14/34/9 9/35/9 13/36/9
f 11/37/10 15/38/10 12/39/10 16/40/10
f 11/41/11 9/42/11 13/43/11 15/44/11
f 16/45/12 14/46/12 10/47/12 12/48/12
f 18/49/13 17/50/13 20/51/13 19/52/13
f 21/53/14 22/54/14 23/55/14 24/56/14
f 18/57/15 22/58/15 17/59/15 21/60/15
f 19/61/16 23/62/16 20/63/16 24/64/16
f 19/65/17 17/66/17 21/67/17 23/68/17
f 24/69/18 22/70/18 18/71/18 20/72/18
f 26/73/19 25/74/19 28/75/19 27/76/19
f 29/77/20 30/78/20 31/79/20 32/80/20
f 26/81/21 30/82/21 25/83/21 29/84/21
f 27/85/22 31/86/22 28/87/22 32/88/22
f 27/89/23 25/90/23 29/91/23 31/92/23
f 32/93/24 30/94/24 26/95/24 28/96/24
f 34/97/25 33/98/25 36/99/25 35/100/25
f 37/101/26 38/102/26 39/103/26 40/104/26
f 34/105/27 38/106/27 33/107/27 37/108/27
f 35/109/28 39/110/28 36/111/28 40/112/28
f 35/113/29 33/114/29 37/115/29 39/116/29
f 40/117/30 38/118/30 34/119/30 36/120/30