# Made in Blockbench 4.10.4
mtllib pachypteris_shoot.mtl.mtl

o cube
v 0.3437499999999999 -0.004885819648195455 0.3956036076733572
v 0.34374999999999994 0.9767361836450468 -0.010997539214550489
v 0.6562499999999999 0.9767361836450467 -0.010997539214550711
v 0.6562499999999999 -0.004885819648195455 0.3956036076733572
v 0.6562499999999999 0.9767361836450467 -0.010997539214550711
v 0.34374999999999994 0.9767361836450468 -0.010997539214550489
v 0.3437499999999999 -0.004885819648195455 0.3956036076733572
v 0.6562499999999999 -0.004885819648195455 0.3956036076733572
v 0.34375 0.9767199253985183 -0.010987678708868742
v 0.34375 1.790642146212432 -0.6939495140008163
v 0.65625 1.790642146212432 -0.6939495140008163
v 0.65625 0.9767199253985183 -0.010987678708868742
v 0.65625 1.790642146212432 -0.6939495140008163
v 0.34375 1.790642146212432 -0.6939495140008163
v 0.34375 0.9767199253985183 -0.010987678708868742
v 0.65625 0.9767199253985183 -0.010987678708868742
v 0.21046620085393875 1.056939730519391 0.43143708170602135
v -0.12207034778702719 2.349017084100015 0.09890053306505542
v 0.09890052133376875 2.349017084100015 -0.12207033605574047
v 0.43143706997473474 1.056939730519391 0.21046621258522547
v -0.12207034778702719 2.349017084100015 0.09890053306505542
v 0.09890052133376875 2.349017084100015 -0.12207033605574047
v 0.43143706997473474 1.056939730519391 0.21046621258522547
v 0.21046620085393875 1.056939730519391 0.43143708170602135
v 0.34092824330027927 0.010581492256325986 0.5618991209593303
v 0.21046620158324536 1.056939729831797 0.43143707924229635
v 0.43143707070404147 1.056939729831797 0.21046621012150024
v 0.5618991124210754 0.010581492256326097 0.3409282518385339
v 0.21046620158324536 1.056939729831797 0.43143707924229635
v 0.43143707070404147 1.056939729831797 0.21046621012150024
v 0.5618991124210754 0.010581492256326097 0.3409282518385339
v 0.34092824330027927 0.010581492256325986 0.5618991209593303
v 0.6562499999999999 -0.004885819648195455 0.6043963923266428
v 0.6562499999999999 0.9767361836450468 1.010997539214551
v 0.34374999999999994 0.9767361836450469 1.0109975392145505
v 0.3437499999999999 -0.004885819648195566 0.6043963923266427
v 0.34374999999999994 0.9767361836450469 1.0109975392145505
v 0.6562499999999999 0.9767361836450468 1.010997539214551
v 0.6562499999999999 -0.004885819648195455 0.6043963923266428
v 0.3437499999999999 -0.004885819648195566 0.6043963923266427
v 0.65625 0.9767199253985183 1.0109876787088687
v 0.65625 1.790642146212432 1.6939495140008163
v 0.34375000000000006 1.790642146212432 1.6939495140008163
v 0.34375 0.9767199253985182 1.0109876787088685
v 0.34375000000000006 1.790642146212432 1.6939495140008163
v 0.65625 1.790642146212432 1.6939495140008163
v 0.65625 0.9767199253985183 1.0109876787088687
v 0.34375 0.9767199253985182 1.0109876787088685
v 0.6043963923266423 -0.004885819648195566 0.34374999999999944
v 1.0109975392145503 0.9767361836450469 0.34374999999999956
v 1.0109975392145503 0.9767361836450469 0.6562499999999996
v 0.6043963923266423 -0.004885819648195455 0.6562499999999994
v 1.0109975392145503 0.9767361836450469 0.6562499999999996
v 1.0109975392145503 0.9767361836450469 0.34374999999999956
v 0.6043963923266423 -0.004885819648195566 0.34374999999999944
v 0.6043963923266423 -0.004885819648195455 0.6562499999999994
v 1.0109876787088679 0.9767199253985179 0.34374999999999956
v 1.6939495140008156 1.7906421462124316 0.3437499999999998
v 1.6939495140008158 1.7906421462124316 0.6562499999999998
v 1.0109876787088679 0.9767199253985179 0.6562499999999996
v 1.6939495140008158 1.7906421462124316 0.6562499999999998
v 1.6939495140008156 1.7906421462124316 0.3437499999999998
v 1.0109876787088679 0.9767199253985179 0.34374999999999956
v 1.0109876787088679 0.9767199253985179 0.6562499999999996
v -0.010987678708868964 0.9767199253985182 0.6562499999999996
v -0.6939495140008167 1.790642146212432 0.6562499999999996
v -0.693949514000817 1.7906421462124322 0.34374999999999933
v -0.010987678708868964 0.976719925398518 0.34374999999999956
v -0.693949514000817 1.7906421462124322 0.34374999999999933
v -0.6939495140008167 1.790642146212432 0.6562499999999996
v -0.010987678708868964 0.9767199253985182 0.6562499999999996
v -0.010987678708868964 0.976719925398518 0.34374999999999956
v 0.39560360767335684 -0.004885819648195455 0.6562499999999996
v -0.010997539214550933 0.9767361836450469 0.6562499999999997
v -0.010997539214550933 0.9767361836450469 0.34374999999999956
v 0.39560360767335684 -0.004885819648195566 0.34374999999999944
v -0.010997539214550933 0.9767361836450469 0.34374999999999956
v -0.010997539214550933 0.9767361836450469 0.6562499999999997
v 0.39560360767335684 -0.004885819648195455 0.6562499999999996
v 0.39560360767335684 -0.004885819648195566 0.34374999999999944
v 0.5685629300252653 1.056939730519391 0.21046621258522547
v 0.9010994786662312 2.349017084100015 -0.12207033605574047
v 1.1220703477870275 2.349017084100015 0.09890053306505542
v 0.7895337991460613 1.056939730519391 0.43143708170602135
v 1.1220703477870275 2.349017084100015 0.09890053306505542
v 0.9010994786662312 2.349017084100015 -0.12207033605574047
v 0.5685629300252653 1.056939730519391 0.21046621258522547
v 0.7895337991460613 1.056939730519391 0.43143708170602135
v 0.4381008875789246 0.010581492256326097 0.3409282518385339
v 0.5685629292959585 1.056939729831797 0.21046621012150024
v 0.7895337984167546 1.056939729831797 0.43143707924229635
v 0.6590717566997208 0.010581492256325986 0.5618991209593303
v 0.7895337984167546 1.056939729831797 0.43143707924229635
v 0.5685629292959585 1.056939729831797 0.21046621012150024
v 0.4381008875789246 0.010581492256326097 0.3409282518385339
v 0.6590717566997208 0.010581492256325986 0.5618991209593303
v 0.7895337926210837 1.0569397319741345 0.5685629182939784
v 1.1220703412620496 2.3490170855547583 0.9010994669349444
v 0.9010994721412535 2.3490170855547583 1.1220703360557405
v 0.5685629235002876 1.0569397319741345 0.7895337874147743
v 0.9010994721412535 2.3490170855547583 1.1220703360557405
v 1.1220703412620496 2.3490170855547583 0.9010994669349444
v 0.7895337926210837 1.0569397319741345 0.5685629182939784
v 0.5685629235002876 1.0569397319741345 0.7895337874147743
v 0.6590717519766327 0.010581492996726283 0.4381008790406695
v 0.7895337936936666 1.056939730572197 0.5685629207577032
v 0.5685629245728705 1.0569397305721973 0.7895337898784993
v 0.4381008828558366 0.010581492996726172 0.6590717481614656
v 0.5685629245728705 1.0569397305721973 0.7895337898784993
v 0.7895337936936666 1.056939730572197 0.5685629207577032
v 0.6590717519766327 0.010581492996726283 0.4381008790406695
v 0.4381008828558366 0.010581492996726172 0.6590717481614656
v 0.4314370764997124 1.0569397319741345 0.7895337874147743
v 0.09890052785874642 2.349017085554758 1.1220703360557405
v -0.12207034126204952 2.3490170855547583 0.9010994669349444
v 0.21046620737891647 1.0569397319741345 0.5685629182939784
v 0.09890052785874642 2.349017085554758 1.1220703360557405
v -0.12207034126204952 2.3490170855547583 0.9010994669349444
v 0.21046620737891647 1.0569397319741345 0.5685629182939784
v 0.4314370764997124 1.0569397319741345 0.7895337874147743
v 0.5618991171441634 0.010581492996726172 0.6590717481614656
v 0.4314370754271295 1.0569397305721973 0.7895337898784993
v 0.21046620630633345 1.0569397305721973 0.5685629207577032
v 0.3409282480233673 0.010581492996726172 0.4381008790406695
v 0.4314370754271295 1.0569397305721973 0.7895337898784993
v 0.21046620630633345 1.0569397305721973 0.5685629207577032
v 0.3409282480233673 0.010581492996726172 0.4381008790406695
v 0.5618991171441634 0.010581492996726172 0.6590717481614656
vt 0.40625 0.390625
vt 0.40625 0.65625
vt 0.328125 0.65625
vt 0.328125 0.390625
vt 0 0.921875
vt 0 0.921875
vt 0 1
vt 0 1
vt 0 1
vt 0 1
vt 0 0.921875
vt 0 0.921875
vt 0 1
vt 0 1
vt 0 0.734375
vt 0 0.734375
vt 0 1
vt 0 1
vt 0 0.734375
vt 0 0.734375
vt 0.484375 0.46875
vt 0.484375 0.734375
vt 0.40625 0.734375
vt 0.40625 0.46875
vt 0 0.921875
vt 0 0.921875
vt 0 1
vt 0 1
vt 0 1
vt 0 1
vt 0 0.921875
vt 0 0.921875
vt 0 1
vt 0 1
vt 0 0.734375
vt 0 0.734375
vt 0 1
vt 0 1
vt 0 0.734375
vt 0 0.734375
vt 0.328125 0.65625
vt 0.328125 1
vt 0.25 1
vt 0.25 0.65625
vt 0 0.921875
vt 0 0.921875
vt 0 1
vt 0 1
vt 0 1
vt 0 1
vt 0 0.921875
vt 0 0.921875
vt 0 1
vt 0 1
vt 0 0.65625
vt 0 0.65625
vt 0 1
vt 0 1
vt 0 0.65625
vt 0 0.65625
vt 0.5625 0.734375
vt 0.5625 1
vt 0.484375 1
vt 0.484375 0.734375
vt 0 0.921875
vt 0 0.921875
vt 0 1
vt 0 1
vt 0 1
vt 0 1
vt 0 0.921875
vt 0 0.921875
vt 0 1
vt 0 1
vt 0 0.734375
vt 0 0.734375
vt 0 1
vt 0 1
vt 0 0.734375
vt 0 0.734375
vt 0.328125 0.390625
vt 0.328125 0.65625
vt 0.40625 0.65625
vt 0.40625 0.390625
vt 0 1
vt 0 1
vt 0 0.921875
vt 0 0.921875
vt 0 0.921875
vt 0 0.921875
vt 0 1
vt 0 1
vt 0 1
vt 0 1
vt 0 0.734375
vt 0 0.734375
vt 0 1
vt 0 1
vt 0 0.734375
vt 0 0.734375
vt 0.40625 0.46875
vt 0.40625 0.734375
vt 0.484375 0.734375
vt 0.484375 0.46875
vt 0 1
vt 0 1
vt 0 0.921875
vt 0 0.921875
vt 0 0.921875
vt 0 0.921875
vt 0 1
vt 0 1
vt 0 1
vt 0 1
vt 0 0.734375
vt 0 0.734375
vt 0 1
vt 0 1
vt 0 0.734375
vt 0 0.734375
vt 0.328125 0.390625
vt 0.328125 0.65625
vt 0.40625 0.65625
vt 0.40625 0.390625
vt 0 1
vt 0 1
vt 0 0.921875
vt 0 0.921875
vt 0 0.921875
vt 0 0.921875
vt 0 1
vt 0 1
vt 0 1
vt 0 1
vt 0 0.734375
vt 0 0.734375
vt 0 1
vt 0 1
vt 0 0.734375
vt 0 0.734375
vt 0.40625 0.46875
vt 0.40625 0.734375
vt 0.484375 0.734375
vt 0.484375 0.46875
vt 0 1
vt 0 1
vt 0 0.921875
vt 0 0.921875
vt 0 0.921875
vt 0 0.921875
vt 0 1
vt 0 1
vt 0 1
vt 0 1
vt 0 0.734375
vt 0 0.734375
vt 0 1
vt 0 1
vt 0 0.734375
vt 0 0.734375
vt 0.484375 0.46875
vt 0.484375 0.734375
vt 0.40625 0.734375
vt 0.40625 0.46875
vt 0 0.921875
vt 0 0.921875
vt 0 1
vt 0 1
vt 0 1
vt 0 1
vt 0 0.921875
vt 0 0.921875
vt 0 1
vt 0 1
vt 0 0.734375
vt 0 0.734375
vt 0 1
vt 0 1
vt 0 0.734375
vt 0 0.734375
vt 0.40625 0.390625
vt 0.40625 0.65625
vt 0.328125 0.65625
vt 0.328125 0.390625
vt 0 0.921875
vt 0 0.921875
vt 0 1
vt 0 1
vt 0 1
vt 0 1
vt 0 0.921875
vt 0 0.921875
vt 0 1
vt 0 1
vt 0 0.734375
vt 0 0.734375
vt 0 1
vt 0 1
vt 0 0.734375
vt 0 0.734375
vt 0.25 0.65625
vt 0.25 1
vt 0.328125 1
vt 0.328125 0.65625
vt 0 0.921875
vt 0 0.921875
vt 0 1
vt 0 1
vt 0 1
vt 0 1
vt 0 0.921875
vt 0 0.921875
vt 0 1
vt 0 1
vt 0 0.65625
vt 0 0.65625
vt 0 1
vt 0 1
vt 0 0.65625
vt 0 0.65625
vt 0.484375 0.734375
vt 0.484375 1
vt 0.5625 1
vt 0.5625 0.734375
vt 0 0.921875
vt 0 0.921875
vt 0 1
vt 0 1
vt 0 1
vt 0 1
vt 0 0.921875
vt 0 0.921875
vt 0 1
vt 0 1
vt 0 0.734375
vt 0 0.734375
vt 0 1
vt 0 1
vt 0 0.734375
vt 0 0.734375
vt 0.328125 0.65625
vt 0.328125 1
vt 0.25 1
vt 0.25 0.65625
vt 0 1
vt 0 1
vt 0 0.921875
vt 0 0.921875
vt 0 0.921875
vt 0 0.921875
vt 0 1
vt 0 1
vt 0 1
vt 0 1
vt 0 0.65625
vt 0 0.65625
vt 0 1
vt 0 1
vt 0 0.65625
vt 0 0.65625
vt 0.5625 0.734375
vt 0.5625 1
vt 0.484375 1
vt 0.484375 0.734375
vt 0 1
vt 0 1
vt 0 0.921875
vt 0 0.921875
vt 0 0.921875
vt 0 0.921875
vt 0 1
vt 0 1
vt 0 1
vt 0 1
vt 0 0.734375
vt 0 0.734375
vt 0 1
vt 0 1
vt 0 0.734375
vt 0 0.734375
vt 0.25 0.65625
vt 0.25 1
vt 0.328125 1
vt 0.328125 0.65625
vt 0 1
vt 0 1
vt 0 0.921875
vt 0 0.921875
vt 0 0.921875
vt 0 0.921875
vt 0 1
vt 0 1
vt 0 1
vt 0 1
vt 0 0.65625
vt 0 0.65625
vt 0 1
vt 0 1
vt 0 0.65625
vt 0 0.65625
vt 0.484375 0.734375
vt 0.484375 1
vt 0.5625 1
vt 0.5625 0.734375
vt 0 1
vt 0 1
vt 0 0.921875
vt 0 0.921875
vt 0 0.921875
vt 0 0.921875
vt 0 1
vt 0 1
vt 0 1
vt 0 1
vt 0 0.734375
vt 0 0.734375
vt 0 1
vt 0 1
vt 0 0.734375
vt 0 0.734375
vn -6.687461042448003e-16 -0.3826834323650896 -0.9238795325112868
vn 0 0 0
vn 0 0 0
vn 0 0 0
vn 0 0 0
vn 0 -0.6427876096865393 -0.7660444431189783
vn 0 0 0
vn 0 0 0
vn 0 0 0
vn 0 0 0
vn -0.6644630243886746 -0.34202014332566877 -0.6644630243886749
vn 0 0 0
vn 0 0 0
vn 0 0 0
vn 0 0 0
vn -0.696364240320019 -0.17364817766693075 -0.696364240320019
vn 0 0 0
vn 0 0 0
vn 0 0 0
vn 0 0 0
vn -1.1703056824284005e-15 -0.38268343236509 0.9238795325112868
vn 0 0 0
vn 0 0 0
vn 0 0 0
vn 0 0 0
vn 0 -0.6427876096865394 0.7660444431189782
vn 0 0 0
vn 0 0 0
vn 0 0 0
vn 0 0 0
vn 0.9238795325112868 -0.3826834323650898 0
vn 0 0 0
vn 0 0 0
vn 0 0 0
vn 0 0 0
vn 0.766044443118978 -0.6427876096865395 -6.687461042448008e-16
vn 0 0 0
vn 0 0 0
vn 0 0 0
vn 0 0 0
vn -0.766044443118978 -0.6427876096865394 0
vn 0 0 0
vn 0 0 0
vn 0 0 0
vn 0 0 0
vn -0.9238795325112868 -0.3826834323650896 0
vn 0 0 0
vn 0 0 0
vn 0 0 0
vn 0 0 0
vn 0.6644630243886741 -0.34202014332566877 -0.6644630243886753
vn 0 0 0
vn 0 0 0
vn 0 0 0
vn 0 0 0
vn 0.696364240320019 -0.17364817766693055 -0.6963642403200189
vn 0 0 0
vn 0 0 0
vn 0 0 0
vn 0 0 0
vn 0.6644630243886746 -0.34202014332566877 0.664463024388675
vn 0 0 0
vn 0 0 0
vn 0 0 0
vn 0 0 0
vn 0.696364240320019 -0.1736481776669306 0.696364240320019
vn 0 0 0
vn 0 0 0
vn 0 0 0
vn 0 0 0
vn -0.6644630243886752 -0.34202014332566893 0.6644630243886742
vn 0 0 0
vn 0 0 0
vn 0 0 0
vn 0 0 0
vn -0.6963642403200192 -0.1736481776669306 0.6963642403200188
vn 0 0 0
vn 0 0 0
vn 0 0 0
vn 0 0 0
usemtl m_fd1bf6f2-9ab5-0736-5197-21045d624da2
f 1/1/1 2/2/1 3/3/1 4/4/1
f 5/5/2 3/6/2 6/7/2 2/8/2
f 7/9/3 1/10/3 8/11/3 4/12/3
f 6/13/4 2/14/4 7/15/4 1/16/4
f 3/17/5 5/18/5 4/19/5 8/20/5
f 9/21/6 10/22/6 11/23/6 12/24/6
f 13/25/7 11/26/7 14/27/7 10/28/7
f 15/29/8 9/30/8 16/31/8 12/32/8
f 14/33/9 10/34/9 15/35/9 9/36/9
f 11/37/10 13/38/10 12/39/10 16/40/10
f 17/41/11 18/42/11 19/43/11 20/44/11
f 18/45/12 21/46/12 19/47/12 22/48/12
f 20/49/13 23/50/13 17/51/13 24/52/13
f 19/53/14 22/54/14 20/55/14 23/56/14
f 21/57/15 18/58/15 24/59/15 17/60/15
f 25/61/16 26/62/16 27/63/16 28/64/16
f 26/65/17 29/66/17 27/67/17 30/68/17
f 28/69/18 31/70/18 25/71/18 32/72/18
f 27/73/19 30/74/19 28/75/19 31/76/19
f 29/77/20 26/78/20 32/79/20 25/80/20
f 33/81/21 34/82/21 35/83/21 36/84/21
f 37/85/22 35/86/22 38/87/22 34/88/22
f 39/89/23 33/90/23 40/91/23 36/92/23
f 38/93/24 34/94/24 39/95/24 33/96/24
f 35/97/25 37/98/25 36/99/25 40/100/25
f 41/101/26 42/102/26 43/103/26 44/104/26
f 45/105/27 43/106/27 46/107/27 42/108/27
f 47/109/28 41/110/28 48/111/28 44/112/28
f 46/113/29 42/114/29 47/115/29 41/116/29
f 43/117/30 45/118/30 44/119/30 48/120/30
f 49/121/31 50/122/31 51/123/31 52/124/31
f 53/125/32 51/126/32 54/127/32 50/128/32
f 55/129/33 49/130/33 56/131/33 52/132/33
f 54/133/34 50/134/34 55/135/34 49/136/34
f 51/137/35 53/138/35 52/139/35 56/140/35
f 57/141/36 58/142/36 59/143/36 60/144/36
f 61/145/37 59/146/37 62/147/37 58/148/37
f 63/149/38 57/150/38 64/151/38 60/152/38
f 62/153/39 58/154/39 63/155/39 57/156/39
f 59/157/40 61/158/40 60/159/40 64/160/40
f 65/161/41 66/162/41 67/163/41 68/164/41
f 69/165/42 67/166/42 70/167/42 66/168/42
f 71/169/43 65/170/43 72/171/43 68/172/43
f 70/173/44 66/174/44 71/175/44 65/176/44
f 67/177/45 69/178/45 68/179/45 72/180/45
f 73/181/46 74/182/46 75/183/46 76/184/46
f 77/185/47 75/186/47 78/187/47 74/188/47
f 79/189/48 73/190/48 80/191/48 76/192/48
f 78/193/49 74/194/49 79/195/49 73/196/49
f 75/197/50 77/198/50 76/199/50 80/200/50
f 81/201/51 82/202/51 83/203/51 84/204/51
f 85/205/52 83/206/52 86/207/52 82/208/52
f 87/209/53 81/210/53 88/211/53 84/212/53
f 86/213/54 82/214/54 87/215/54 81/216/54
f 83/217/55 85/218/55 84/219/55 88/220/55
f 89/221/56 90/222/56 91/223/56 92/224/56
f 93/225/57 91/226/57 94/227/57 90/228/57
f 95/229/58 89/230/58 96/231/58 92/232/58
f 94/233/59 90/234/59 95/235/59 89/236/59
f 91/237/60 93/238/60 92/239/60 96/240/60
f 97/241/61 98/242/61 99/243/61 100/244/61
f 101/245/62 99/246/62 102/247/62 98/248/62
f 103/249/63 97/250/63 104/251/63 100/252/63
f 102/253/64 98/254/64 103/255/64 97/256/64
f 99/257/65 101/258/65 100/259/65 104/260/65
f 105/261/66 106/262/66 107/263/66 108/264/66
f 109/265/67 107/266/67 110/267/67 106/268/67
f 111/269/68 105/270/68 112/271/68 108/272/68
f 110/273/69 106/274/69 111/275/69 105/276/69
f 107/277/70 109/278/70 108/279/70 112/280/70
f 113/281/71 114/282/71 115/283/71 116/284/71
f 114/285/72 117/286/72 115/287/72 118/288/72
f 116/289/73 119/290/73 113/291/73 120/292/73
f 115/293/74 118/294/74 116/295/74 119/296/74
f 117/297/75 114/298/75 120/299/75 113/300/75
f 121/301/76 122/302/76 123/303/76 124/304/76
f 122/305/77 125/306/77 123/307/77 126/308/77
f 124/309/78 127/310/78 121/311/78 128/312/78
f 123/313/79 126/314/79 124/315/79 127/316/79
f 125/317/80 122/318/80 128/319/80 121/320/80