# Made in Blockbench 4.10.3
mtllib pachypteris.mtl

o cube
v 1.0109975392145503 2.914236183645047 0.34374999999999956
v 1.0109975392145503 2.9142361836450466 0.6562499999999996
v 0.6043963923266422 1.9326141803518047 0.34374999999999944
v 0.6043963923266422 1.9326141803518047 0.6562499999999994
v 1.0109975392145503 2.914236183645047 0.34374999999999956
v 1.0109975392145503 2.9142361836450466 0.6562499999999996
v 0.6043963923266422 1.9326141803518047 0.34374999999999944
v 0.6043963923266422 1.9326141803518047 0.6562499999999994
v 0.625 2 0.625
v 0.625 2 0.375
v 0.625 0 0.625
v 0.625 0 0.375
v 0.37499999999999994 2 0.625
v 0.375 2 0.375
v 0.37500000000000006 0 0.625
v 0.37500000000000006 0 0.375
v 0.4314370707040417 2.994439729831797 0.21046621012150035
v 0.21046620158324547 2.994439729831797 0.4314370792422965
v 0.5618991124210755 1.9480814922563259 0.3409282518385342
v 0.3409282433002794 1.9480814922563259 0.5618991209593304
v 0.4314370707040417 2.994439729831797 0.21046621012150035
v 0.21046620158324547 2.994439729831797 0.4314370792422965
v 0.5618991124210755 1.9480814922563259 0.3409282518385342
v 0.3409282433002794 1.9480814922563259 0.5618991209593304
v 0.09890052133376875 4.286517084100015 -0.12207033605574025
v -0.12207034778702724 4.286517084100015 0.0989005330650557
v 0.4314370699747349 2.994439730519391 0.21046621258522558
v 0.21046620085393875 2.994439730519391 0.4314370817060215
v 0.09890052133376875 4.286517084100015 -0.12207033605574025
v -0.12207034778702724 4.286517084100015 0.0989005330650557
v 0.4314370699747349 2.994439730519391 0.21046621258522558
v 0.21046620085393875 2.994439730519391 0.4314370817060215
v 0.5685629292959584 2.994439729831797 0.21046621012150035
v 0.7895337984167546 2.994439729831797 0.4314370792422965
v 0.4381008875789245 1.9480814922563257 0.3409282518385342
v 0.6590717566997206 1.9480814922563259 0.5618991209593304
v 0.5685629292959584 2.994439729831797 0.21046621012150035
v 0.7895337984167546 2.994439729831797 0.4314370792422965
v 0.4381008875789245 1.9480814922563257 0.3409282518385342
v 0.6590717566997206 1.9480814922563259 0.5618991209593304
v 0.9010994786662312 4.286517084100015 -0.12207033605574025
v 1.1220703477870275 4.286517084100015 0.0989005330650557
v 0.5685629300252654 2.994439730519391 0.21046621258522558
v 0.7895337991460614 2.994439730519391 0.4314370817060215
v 0.9010994786662312 4.286517084100015 -0.12207033605574025
v 1.1220703477870275 4.286517084100015 0.0989005330650557
v 0.5685629300252654 2.994439730519391 0.21046621258522558
v 0.7895337991460614 2.994439730519391 0.4314370817060215
v 0.21046620630633334 2.9944397305721973 0.5685629207577034
v 0.4314370754271295 2.9944397305721973 0.7895337898784995
v 0.3409282480233673 1.9480814929967258 0.43810087904066963
v 0.5618991171441634 1.9480814929967258 0.6590717481614657
v 0.21046620630633334 2.9944397305721973 0.5685629207577034
v 0.4314370754271295 2.9944397305721973 0.7895337898784995
v 0.3409282480233673 1.9480814929967258 0.43810087904066963
v 0.5618991171441634 1.9480814929967258 0.6590717481614657
v -0.12207034126204935 4.286517085554758 0.9010994669349444
v 0.09890052785874676 4.286517085554758 1.1220703360557405
v 0.21046620737891653 2.994439731974134 0.5685629182939784
v 0.43143707649971264 2.994439731974134 0.7895337874147744
v -0.12207034126204935 4.286517085554758 0.9010994669349444
v 0.09890052785874676 4.286517085554758 1.1220703360557405
v 0.21046620737891653 2.994439731974134 0.5685629182939784
v 0.43143707649971264 2.994439731974134 0.7895337874147744
v 0.7895337936936666 2.994439730572197 0.5685629207577034
v 0.5685629245728704 2.994439730572197 0.7895337898784995
v 0.6590717519766326 1.9480814929967258 0.43810087904066963
v 0.4381008828558365 1.948081492996726 0.6590717481614657
v 0.7895337936936666 2.994439730572197 0.5685629207577034
v 0.5685629245728704 2.994439730572197 0.7895337898784995
v 0.6590717519766326 1.9480814929967258 0.43810087904066963
v 0.4381008828558365 1.948081492996726 0.6590717481614657
v 1.1220703412620499 4.286517085554758 0.9010994669349444
v 0.9010994721412536 4.286517085554758 1.1220703360557405
v 0.7895337926210835 2.994439731974134 0.5685629182939785
v 0.5685629235002875 2.994439731974134 0.7895337874147744
v 1.1220703412620499 4.286517085554758 0.9010994669349444
v 0.9010994721412536 4.286517085554758 1.1220703360557405
v 0.7895337926210835 2.994439731974134 0.5685629182939785
v 0.5685629235002875 2.994439731974134 0.7895337874147744
v 0.3437499999999999 3.728142146212432 -0.6939495140008161
v 0.6562499999999999 3.7281421462124325 -0.6939495140008161
v 0.34374999999999994 2.9142199253985175 -0.010987678708868187
v 0.65625 2.9142199253985175 -0.010987678708868187
v 0.3437499999999999 3.728142146212432 -0.6939495140008161
v 0.6562499999999999 3.7281421462124325 -0.6939495140008161
v 0.34374999999999994 2.9142199253985175 -0.010987678708868187
v 0.65625 2.9142199253985175 -0.010987678708868187
v 0.3437499999999999 2.9142361836450466 -0.0109975392145506
v 0.6562499999999998 2.9142361836450466 -0.010997539214550711
v 0.34374999999999983 1.9326141803518047 0.3956036076733572
v 0.6562499999999999 1.9326141803518047 0.3956036076733572
v 0.3437499999999999 2.9142361836450466 -0.0109975392145506
v 0.6562499999999998 2.9142361836450466 -0.010997539214550711
v 0.34374999999999983 1.9326141803518047 0.3956036076733572
v 0.6562499999999999 1.9326141803518047 0.3956036076733572
v 0.6562499999999998 3.728142146212432 1.693949514000816
v 0.3437499999999999 3.728142146212432 1.693949514000816
v 0.65625 2.9142199253985175 1.0109876787088683
v 0.34374999999999994 2.9142199253985175 1.0109876787088683
v 0.6562499999999998 3.728142146212432 1.693949514000816
v 0.3437499999999999 3.728142146212432 1.693949514000816
v 0.65625 2.9142199253985175 1.0109876787088683
v 0.34374999999999994 2.9142199253985175 1.0109876787088683
v 0.6562499999999998 2.9142361836450466 1.0109975392145505
v 0.3437499999999999 2.914236183645046 1.0109975392145505
v 0.6562499999999999 1.9326141803518047 0.6043963923266428
v 0.3437499999999998 1.9326141803518047 0.6043963923266428
v 0.6562499999999998 2.9142361836450466 1.0109975392145505
v 0.3437499999999999 2.914236183645046 1.0109975392145505
v 0.6562499999999999 1.9326141803518047 0.6043963923266428
v 0.3437499999999998 1.9326141803518047 0.6043963923266428
v -0.010997539214550767 2.914236183645047 0.6562499999999996
v -0.010997539214550767 2.914236183645047 0.34374999999999956
v 0.3956036076733568 1.9326141803518047 0.6562499999999996
v 0.3956036076733568 1.9326141803518044 0.34374999999999956
v -0.010997539214550767 2.914236183645047 0.6562499999999996
v -0.010997539214550767 2.914236183645047 0.34374999999999956
v 0.3956036076733568 1.9326141803518047 0.6562499999999996
v 0.3956036076733568 1.9326141803518044 0.34374999999999956
v -0.6939495140008167 3.7281421462124325 0.6562499999999996
v -0.6939495140008167 3.7281421462124325 0.34374999999999956
v -0.010987678708868576 2.9142199253985175 0.6562499999999996
v -0.010987678708868576 2.9142199253985175 0.34374999999999956
v -0.6939495140008167 3.7281421462124325 0.6562499999999996
v -0.6939495140008167 3.7281421462124325 0.34374999999999956
v -0.010987678708868576 2.9142199253985175 0.6562499999999996
v -0.010987678708868576 2.9142199253985175 0.34374999999999956
v 1.693949514000816 3.728142146212432 0.34374999999999967
v 1.693949514000816 3.728142146212432 0.6562499999999997
v 1.0109876787088676 2.9142199253985175 0.34374999999999956
v 1.0109876787088676 2.9142199253985175 0.6562499999999996
v 1.693949514000816 3.728142146212432 0.34374999999999967
v 1.693949514000816 3.728142146212432 0.6562499999999997
v 1.0109876787088676 2.9142199253985175 0.34374999999999956
v 1.0109876787088676 2.9142199253985175 0.6562499999999996
vt 0.25 0.390625
vt 0.25 0.65625
vt 0.328125 0.65625
vt 0.328125 0.390625
vt 0.328125 0.390625
vt 0.328125 0.65625
vt 0.40625 0.65625
vt 0.40625 0.390625
vt 0 1
vt 0 1
vt 0 0.921875
vt 0 0.921875
vt 0 0.921875
vt 0 0.921875
vt 0 1
vt 0 1
vt 0 1
vt 0 1
vt 0 0.734375
vt 0 0.734375
vt 0 1
vt 0 1
vt 0 0.734375
vt 0 0.734375
vt 0.125 0.5
vt 0.125 1
vt 0.0625 1
vt 0.0625 0.5
vt 0.25 0.5
vt 0.25 1
vt 0.1875 1
vt 0.1875 0.5
vt 0 0.5
vt 0 0.4375
vt 0.0625 0.4375
vt 0.0625 0.5
vt 0.0625 0.4375
vt 0.0625 0.5
vt 0.125 0.5
vt 0.125 0.4375
vt 0.1875 0.5
vt 0.1875 1
vt 0.125 1
vt 0.125 0.5
vt 0.0625 0.5
vt 0.0625 1
vt 0 1
vt 0 0.5
vt 0.5625 0.734375
vt 0.5625 1
vt 0.484375 1
vt 0.484375 0.734375
vt 0.5625 0.46875
vt 0.5625 0.734375
vt 0.484375 0.734375
vt 0.484375 0.46875
vt 0 0.921875
vt 0 0.921875
vt 0 1
vt 0 1
vt 0 1
vt 0 1
vt 0 0.921875
vt 0 0.921875
vt 0 1
vt 0 1
vt 0 0.734375
vt 0 0.734375
vt 0 1
vt 0 1
vt 0 0.734375
vt 0 0.734375
vt 0.328125 0.65625
vt 0.328125 1
vt 0.25 1
vt 0.25 0.65625
vt 0.40625 0.65625
vt 0.40625 1
vt 0.328125 1
vt 0.328125 0.65625
vt 0 0.921875
vt 0 0.921875
vt 0 1
vt 0 1
vt 0 1
vt 0 1
vt 0 0.921875
vt 0 0.921875
vt 0 1
vt 0 1
vt 0 0.65625
vt 0 0.65625
vt 0 1
vt 0 1
vt 0 0.65625
vt 0 0.65625
vt 0.484375 0.46875
vt 0.484375 0.734375
vt 0.5625 0.734375
vt 0.5625 0.46875
vt 0.484375 0.734375
vt 0.484375 1
vt 0.5625 1
vt 0.5625 0.734375
vt 0 0.921875
vt 0 0.921875
vt 0 1
vt 0 1
vt 0 1
vt 0 1
vt 0 0.921875
vt 0 0.921875
vt 0 1
vt 0 1
vt 0 0.734375
vt 0 0.734375
vt 0 1
vt 0 1
vt 0 0.734375
vt 0 0.734375
vt 0.328125 0.65625
vt 0.328125 1
vt 0.40625 1
vt 0.40625 0.65625
vt 0.25 0.65625
vt 0.25 1
vt 0.328125 1
vt 0.328125 0.65625
vt 0 0.921875
vt 0 0.921875
vt 0 1
vt 0 1
vt 0 1
vt 0 1
vt 0 0.921875
vt 0 0.921875
vt 0 1
vt 0 1
vt 0 0.65625
vt 0 0.65625
vt 0 1
vt 0 1
vt 0 0.65625
vt 0 0.65625
vt 0.484375 0.734375
vt 0.484375 1
vt 0.5625 1
vt 0.5625 0.734375
vt 0.484375 0.46875
vt 0.484375 0.734375
vt 0.5625 0.734375
vt 0.5625 0.46875
vt 0 1
vt 0 1
vt 0 0.921875
vt 0 0.921875
vt 0 0.921875
vt 0 0.921875
vt 0 1
vt 0 1
vt 0 1
vt 0 1
vt 0 0.734375
vt 0 0.734375
vt 0 1
vt 0 1
vt 0 0.734375
vt 0 0.734375
vt 0.25 0.65625
vt 0.25 1
vt 0.328125 1
vt 0.328125 0.65625
vt 0.328125 0.65625
vt 0.328125 1
vt 0.40625 1
vt 0.40625 0.65625
vt 0 1
vt 0 1
vt 0 0.921875
vt 0 0.921875
vt 0 0.921875
vt 0 0.921875
vt 0 1
vt 0 1
vt 0 1
vt 0 1
vt 0 0.65625
vt 0 0.65625
vt 0 1
vt 0 1
vt 0 0.65625
vt 0 0.65625
vt 0.5625 0.46875
vt 0.5625 0.734375
vt 0.484375 0.734375
vt 0.484375 0.46875
vt 0.5625 0.734375
vt 0.5625 1
vt 0.484375 1
vt 0.484375 0.734375
vt 0 1
vt 0 1
vt 0 0.921875
vt 0 0.921875
vt 0 0.921875
vt 0 0.921875
vt 0 1
vt 0 1
vt 0 1
vt 0 1
vt 0 0.734375
vt 0 0.734375
vt 0 1
vt 0 1
vt 0 0.734375
vt 0 0.734375
vt 0.40625 0.65625
vt 0.40625 1
vt 0.328125 1
vt 0.328125 0.65625
vt 0.328125 0.65625
vt 0.328125 1
vt 0.25 1
vt 0.25 0.65625
vt 0 1
vt 0 1
vt 0 0.921875
vt 0 0.921875
vt 0 0.921875
vt 0 0.921875
vt 0 1
vt 0 1
vt 0 1
vt 0 1
vt 0 0.65625
vt 0 0.65625
vt 0 1
vt 0 1
vt 0 0.65625
vt 0 0.65625
vt 0.484375 0.734375
vt 0.484375 1
vt 0.40625 1
vt 0.40625 0.734375
vt 0.484375 0.46875
vt 0.484375 0.734375
vt 0.40625 0.734375
vt 0.40625 0.46875
vt 0 0.921875
vt 0 0.921875
vt 0 1
vt 0 1
vt 0 1
vt 0 1
vt 0 0.921875
vt 0 0.921875
vt 0 1
vt 0 1
vt 0 0.734375
vt 0 0.734375
vt 0 1
vt 0 1
vt 0 0.734375
vt 0 0.734375
vt 0.328125 0.390625
vt 0.328125 0.65625
vt 0.25 0.65625
vt 0.25 0.390625
vt 0.40625 0.390625
vt 0.40625 0.65625
vt 0.328125 0.65625
vt 0.328125 0.390625
vt 0 0.921875
vt 0 0.921875
vt 0 1
vt 0 1
vt 0 1
vt 0 1
vt 0 0.921875
vt 0 0.921875
vt 0 1
vt 0 1
vt 0 0.734375
vt 0 0.734375
vt 0 1
vt 0 1
vt 0 0.734375
vt 0 0.734375
vt 0.40625 0.734375
vt 0.40625 1
vt 0.484375 1
vt 0.484375 0.734375
vt 0.40625 0.46875
vt 0.40625 0.734375
vt 0.484375 0.734375
vt 0.484375 0.46875
vt 0 1
vt 0 1
vt 0 0.921875
vt 0 0.921875
vt 0 0.921875
vt 0 0.921875
vt 0 1
vt 0 1
vt 0 1
vt 0 1
vt 0 0.734375
vt 0 0.734375
vt 0 1
vt 0 1
vt 0 0.734375
vt 0 0.734375
vt 0.25 0.390625
vt 0.25 0.65625
vt 0.328125 0.65625
vt 0.328125 0.390625
vt 0.328125 0.390625
vt 0.328125 0.65625
vt 0.40625 0.65625
vt 0.40625 0.390625
vt 0 1
vt 0 1
vt 0 0.921875
vt 0 0.921875
vt 0 0.921875
vt 0 0.921875
vt 0 1
vt 0 1
vt 0 1
vt 0 1
vt 0 0.734375
vt 0 0.734375
vt 0 1
vt 0 1
vt 0 0.734375
vt 0 0.734375
vt 0.328125 0.390625
vt 0.328125 0.65625
vt 0.25 0.65625
vt 0.25 0.390625
vt 0.40625 0.390625
vt 0.40625 0.65625
vt 0.328125 0.65625
vt 0.328125 0.390625
vt 0 0.921875
vt 0 0.921875
vt 0 1
vt 0 1
vt 0 1
vt 0 1
vt 0 0.921875
vt 0 0.921875
vt 0 1
vt 0 1
vt 0 0.734375
vt 0 0.734375
vt 0 1
vt 0 1
vt 0 0.734375
vt 0 0.734375
vt 0.484375 0.734375
vt 0.484375 1
vt 0.40625 1
vt 0.40625 0.734375
vt 0.484375 0.46875
vt 0.484375 0.734375
vt 0.40625 0.734375
vt 0.40625 0.46875
vt 0 0.921875
vt 0 0.921875
vt 0 1
vt 0 1
vt 0 1
vt 0 1
vt 0 0.921875
vt 0 0.921875
vt 0 1
vt 0 1
vt 0 0.734375
vt 0 0.734375
vt 0 1
vt 0 1
vt 0 0.734375
vt 0 0.734375
vt 0.40625 0.734375
vt 0.40625 1
vt 0.484375 1
vt 0.484375 0.734375
vt 0.40625 0.46875
vt 0.40625 0.734375
vt 0.484375 0.734375
vt 0.484375 0.46875
vt 0 1
vt 0 1
vt 0 0.921875
vt 0 0.921875
vt 0 0.921875
vt 0 0.921875
vt 0 1
vt 0 1
vt 0 1
vt 0 1
vt 0 0.734375
vt 0 0.734375
vt 0 1
vt 0 1
vt 0 0.734375
vt 0 0.734375
vn -0.9238795325112867 0.3826834323650899 4.6865204053263e-17
vn 0.9238795325112867 -0.3826834323650899 -4.6865204053263e-17
vn 0 0 0
vn 0 0 0
vn 0 0 0
vn 0 0 0
vn 1 0 0
vn -1 -5.551115123125777e-17 -4.440892098500626e-16
vn 3.3306690738754686e-16 1 1.224646799147353e-16
vn -3.3306690738754686e-16 -1 -1.224646799147353e-16
vn 4.930380657631324e-32 -1.1442377452219667e-17 1
vn -3.0814879110195774e-32 1.1442377452219679e-17 -1
vn -0.696364240320019 -0.17364817766693055 -0.696364240320019
vn 0.696364240320019 0.17364817766693058 0.696364240320019
vn 0 0 0
vn 0 0 0
vn 0 0 0
vn 0 0 0
vn -0.6644630243886747 -0.3420201433256688 -0.6644630243886747
vn 0.6644630243886746 0.3420201433256689 0.6644630243886748
vn 0 0 0
vn 0 0 0
vn 0 0 0
vn 0 0 0
vn -0.696364240320019 0.17364817766693072 0.696364240320019
vn 0.696364240320019 -0.17364817766693072 -0.6963642403200189
vn 0 0 0
vn 0 0 0
vn 0 0 0
vn 0 0 0
vn -0.6644630243886746 0.3420201433256687 0.6644630243886749
vn 0.6644630243886747 -0.34202014332566877 -0.6644630243886749
vn 0 0 0
vn 0 0 0
vn 0 0 0
vn 0 0 0
vn -0.6963642403200189 -0.1736481776669306 0.6963642403200191
vn 0.6963642403200189 0.17364817766693044 -0.696364240320019
vn 0 0 0
vn 0 0 0
vn 0 0 0
vn 0 0 0
vn -0.6644630243886752 -0.34202014332566893 0.6644630243886741
vn 0.6644630243886751 0.3420201433256686 -0.6644630243886743
vn 0 0 0
vn 0 0 0
vn 0 0 0
vn 0 0 0
vn -0.696364240320019 0.1736481776669307 -0.696364240320019
vn 0.6963642403200188 -0.1736481776669306 0.696364240320019
vn 0 0 0
vn 0 0 0
vn 0 0 0
vn 0 0 0
vn -0.6644630243886748 0.3420201433256688 -0.6644630243886747
vn 0.6644630243886747 -0.34202014332566877 0.6644630243886749
vn 0 0 0
vn 0 0 0
vn 0 0 0
vn 0 0 0
vn 1.6653345369377348e-16 0.642787609686539 0.7660444431189783
vn 1.6653345369377348e-16 -0.642787609686539 -0.7660444431189782
vn 0 0 0
vn 0 0 0
vn 0 0 0
vn 0 0 0
vn 2.4980018054066027e-16 0.38268343236509006 0.9238795325112868
vn -1.942890293094024e-16 -0.38268343236508995 -0.9238795325112867
vn 0 0 0
vn 0 0 0
vn 0 0 0
vn 0 0 0
vn -2.220446049250313e-16 0.6427876096865393 -0.7660444431189781
vn -5.551115123125783e-17 -0.6427876096865393 0.7660444431189782
vn 0 0 0
vn 0 0 0
vn 0 0 0
vn 0 0 0
vn 5.828670879282072e-16 0.3826834323650897 -0.9238795325112867
vn -6.661338147750939e-16 -0.38268343236508984 0.9238795325112867
vn 0 0 0
vn 0 0 0
vn 0 0 0
vn 0 0 0
vn 0.923879532511287 0.38268343236508945 4.6865204053262937e-17
vn -0.9238795325112871 -0.38268343236508945 -4.6865204053262937e-17
vn 0 0 0
vn 0 0 0
vn 0 0 0
vn 0 0 0
vn 0.7660444431189783 0.6427876096865393 7.871877887341984e-17
vn -0.7660444431189783 -0.6427876096865393 -7.871877887341984e-17
vn 0 0 0
vn 0 0 0
vn 0 0 0
vn 0 0 0
vn -0.7660444431189781 0.6427876096865395 7.871877887341988e-17
vn 0.7660444431189781 -0.6427876096865395 -7.871877887341988e-17
vn 0 0 0
vn 0 0 0
vn 0 0 0
vn 0 0 0
usemtl m_f5e95a82-6f07-e711-8a80-74cad3c877e3
f 4/1/1 2/2/1 1/3/1 3/4/1
f 7/5/2 5/6/2 6/7/2 8/8/2
f 2/9/3 6/10/3 1/11/3 5/12/3
f 3/13/4 7/14/4 4/15/4 8/16/4
f 1/17/5 5/18/5 3/19/5 7/20/5
f 6/21/6 2/22/6 8/23/6 4/24/6
f 12/25/7 10/26/7 9/27/7 11/28/7
f 15/29/8 13/30/8 14/31/8 16/32/8
f 9/33/9 10/34/9 14/35/9 13/36/9
f 12/37/10 11/38/10 15/39/10 16/40/10
f 11/41/11 9/42/11 13/43/11 15/44/11
f 16/45/12 14/46/12 10/47/12 12/48/12
f 20/49/13 18/50/13 17/51/13 19/52/13
f 23/53/14 21/54/14 22/55/14 24/56/14
f 18/57/15 22/58/15 17/59/15 21/60/15
f 19/61/16 23/62/16 20/63/16 24/64/16
f 17/65/17 21/66/17 19/67/17 23/68/17
f 22/69/18 18/70/18 24/71/18 20/72/18
f 28/73/19 26/74/19 25/75/19 27/76/19
f 31/77/20 29/78/20 30/79/20 32/80/20
f 26/81/21 30/82/21 25/83/21 29/84/21
f 27/85/22 31/86/22 28/87/22 32/88/22
f 25/89/23 29/90/23 27/91/23 31/92/23
f 30/93/24 26/94/24 32/95/24 28/96/24
f 36/97/25 34/98/25 33/99/25 35/100/25
f 39/101/26 37/102/26 38/103/26 40/104/26
f 34/105/27 38/106/27 33/107/27 37/108/27
f 35/109/28 39/110/28 36/111/28 40/112/28
f 33/113/29 37/114/29 35/115/29 39/116/29
f 38/117/30 34/118/30 40/119/30 36/120/30
f 44/121/31 42/122/31 41/123/31 43/124/31
f 47/125/32 45/126/32 46/127/32 48/128/32
f 42/129/33 46/130/33 41/131/33 45/132/33
f 43/133/34 47/134/34 44/135/34 48/136/34
f 41/137/35 45/138/35 43/139/35 47/140/35
f 46/141/36 42/142/36 48/143/36 44/144/36
f 52/145/37 50/146/37 49/147/37 51/148/37
f 55/149/38 53/150/38 54/151/38 56/152/38
f 50/153/39 54/154/39 49/155/39 53/156/39
f 51/157/40 55/158/40 52/159/40 56/160/40
f 49/161/41 53/162/41 51/163/41 55/164/41
f 54/165/42 50/166/42 56/167/42 52/168/42
f 60/169/43 58/170/43 57/171/43 59/172/43
f 63/173/44 61/174/44 62/175/44 64/176/44
f 58/177/45 62/178/45 57/179/45 61/180/45
f 59/181/46 63/182/46 60/183/46 64/184/46
f 57/185/47 61/186/47 59/187/47 63/188/47
f 62/189/48 58/190/48 64/191/48 60/192/48
f 68/193/49 66/194/49 65/195/49 67/196/49
f 71/197/50 69/198/50 70/199/50 72/200/50
f 66/201/51 70/202/51 65/203/51 69/204/51
f 67/205/52 71/206/52 68/207/52 72/208/52
f 65/209/53 69/210/53 67/211/53 71/212/53
f 70/213/54 66/214/54 72/215/54 68/216/54
f 76/217/55 74/218/55 73/219/55 75/220/55
f 79/221/56 77/222/56 78/223/56 80/224/56
f 74/225/57 78/226/57 73/227/57 77/228/57
f 75/229/58 79/230/58 76/231/58 80/232/58
f 73/233/59 77/234/59 75/235/59 79/236/59
f 78/237/60 74/238/60 80/239/60 76/240/60
f 84/241/61 82/242/61 81/243/61 83/244/61
f 87/245/62 85/246/62 86/247/62 88/248/62
f 82/249/63 86/250/63 81/251/63 85/252/63
f 83/253/64 87/254/64 84/255/64 88/256/64
f 81/257/65 85/258/65 83/259/65 87/260/65
f 86/261/66 82/262/66 88/263/66 84/264/66
f 92/265/67 90/266/67 89/267/67 91/268/67
f 95/269/68 93/270/68 94/271/68 96/272/68
f 90/273/69 94/274/69 89/275/69 93/276/69
f 91/277/70 95/278/70 92/279/70 96/280/70
f 89/281/71 93/282/71 91/283/71 95/284/71
f 94/285/72 90/286/72 96/287/72 92/288/72
f 100/289/73 98/290/73 97/291/73 99/292/73
f 103/293/74 101/294/74 102/295/74 104/296/74
f 98/297/75 102/298/75 97/299/75 101/300/75
f 99/301/76 103/302/76 100/303/76 104/304/76
f 97/305/77 101/306/77 99/307/77 103/308/77
f 102/309/78 98/310/78 104/311/78 100/312/78
f 108/313/79 106/314/79 105/315/79 107/316/79
f 111/317/80 109/318/80 110/319/80 112/320/80
f 106/321/81 110/322/81 105/323/81 109/324/81
f 107/325/82 111/326/82 108/327/82 112/328/82
f 105/329/83 109/330/83 107/331/83 111/332/83
f 110/333/84 106/334/84 112/335/84 108/336/84
f 116/337/85 114/338/85 113/339/85 115/340/85
f 119/341/86 117/342/86 118/343/86 120/344/86
f 114/345/87 118/346/87 113/347/87 117/348/87
f 115/349/88 119/350/88 116/351/88 120/352/88
f 113/353/89 117/354/89 115/355/89 119/356/89
f 118/357/90 114/358/90 120/359/90 116/360/90
f 124/361/91 122/362/91 121/363/91 123/364/91
f 127/365/92 125/366/92 126/367/92 128/368/92
f 122/369/93 126/370/93 121/371/93 125/372/93
f 123/373/94 127/374/94 124/375/94 128/376/94
f 121/377/95 125/378/95 123/379/95 127/380/95
f 126/381/96 122/382/96 128/383/96 124/384/96
f 132/385/97 130/386/97 129/387/97 131/388/97
f 135/389/98 133/390/98 134/391/98 136/392/98
f 130/393/99 134/394/99 129/395/99 133/396/99
f 131/397/100 135/398/100 132/399/100 136/400/100
f 129/401/101 133/402/101 131/403/101 135/404/101
f 134/405/102 130/406/102 136/407/102 132/408/102