# Made in Blockbench 4.10.0
mtllib paracycas.mtl

o bb_main
v 0.5625 1.6875 0.5625
v 0.5625 1.6875 0.4375
v 0.5625 0 0.5625
v 0.5625 0 0.4375
v 0.4375 1.6875 0.5625
v 0.4375 1.6875 0.4375
v 0.4375 0 0.5625
v 0.4375 0 0.4375
v 0.59375 2.595624960824259 0.8837620406971092
v 0.40625 2.595624960824259 0.8837620406971092
v 0.5937499999999999 1.6717454283129725 0.5010786083320194
v 0.40624999999999994 1.6717454283129725 0.5010786083320194
v 0.59375 2.595624960824259 0.8837620406971092
v 0.40625 2.595624960824259 0.8837620406971092
v 0.5937499999999999 1.6717454283129725 0.5010786083320194
v 0.40624999999999994 1.6717454283129725 0.5010786083320194
v 0.59375 2.595624960824259 0.11623795930289083
v 0.40625000000000006 2.595624960824259 0.11623795930289083
v 0.59375 1.6717454283129725 0.49892139166798055
v 0.40625000000000006 1.6717454283129725 0.49892139166798055
v 0.59375 2.595624960824259 0.11623795930289083
v 0.40625000000000006 2.595624960824259 0.11623795930289083
v 0.59375 1.6717454283129725 0.49892139166798055
v 0.40625000000000006 1.6717454283129725 0.49892139166798055
v 0.8837620406971093 2.595624960824259 0.40625000000000006
v 0.8837620406971093 2.595624960824259 0.59375
v 0.5010786083320193 1.6717454283129722 0.40624999999999994
v 0.5010786083320193 1.6717454283129722 0.59375
v 0.8837620406971093 2.595624960824259 0.40625000000000006
v 0.8837620406971093 2.595624960824259 0.59375
v 0.5010786083320193 1.6717454283129722 0.40624999999999994
v 0.5010786083320193 1.6717454283129722 0.59375
v 0.11623795930289071 2.595624960824259 0.40624999999999994
v 0.11623795930289071 2.595624960824259 0.59375
v 0.4989213916679806 1.6717454283129722 0.40625000000000006
v 0.4989213916679806 1.6717454283129722 0.59375
v 0.11623795930289071 2.595624960824259 0.40624999999999994
v 0.11623795930289071 2.595624960824259 0.59375
v 0.4989213916679806 1.6717454283129722 0.40625000000000006
v 0.4989213916679806 1.6717454283129722 0.59375
v 0.16004126073623887 2.2662675214724777 0.9774618857362388
v 0.027458739263761245 2.2662675214724777 0.8448793642637612
v 0.5662912607362388 1.6917432617584076 0.5712118857362388
v 0.4337087392637612 1.6917432617584076 0.4386293642637612
v 0.16004126073623887 2.2662675214724777 0.9774618857362388
v 0.027458739263761245 2.2662675214724777 0.8448793642637612
v 0.5662912607362388 1.6917432617584076 0.5712118857362388
v 0.4337087392637612 1.6917432617584076 0.4386293642637612
v 0.8399587392637612 2.2279279092323665 0.9923288099191921
v 0.9725412607362388 2.2452334009151023 0.8608805502973214
v 0.43370873926376124 1.7113450497936555 0.5145638710275602
v 0.5662912607362389 1.7286505414763913 0.3831156114056894
v 0.8399587392637612 2.2279279092323665 0.9923288099191921
v 0.9725412607362388 2.2452334009151023 0.8608805502973214
v 0.43370873926376124 1.7113450497936555 0.5145638710275602
v 0.5662912607362389 1.7286505414763913 0.3831156114056894
v 0.027458739263761245 2.2662675214724777 0.1551206357362388
v 0.16004126073623887 2.2662675214724777 0.022538114263761178
v 0.4337087392637612 1.6917432617584076 0.5613706357362388
v 0.5662912607362388 1.6917432617584076 0.4287881142637612
v 0.027458739263761245 2.2662675214724777 0.1551206357362388
v 0.16004126073623887 2.2662675214724777 0.022538114263761178
v 0.4337087392637612 1.6917432617584076 0.5613706357362388
v 0.5662912607362388 1.6917432617584076 0.4287881142637612
v 0.9725412607362387 2.2662675214724777 0.1551206357362388
v 0.8399587392637611 2.2662675214724777 0.022538114263761178
v 0.5662912607362388 1.6917432617584076 0.5613706357362388
v 0.4337087392637612 1.6917432617584076 0.4287881142637612
v 0.9725412607362387 2.2662675214724777 0.1551206357362388
v 0.8399587392637611 2.2662675214724777 0.022538114263761178
v 0.5662912607362388 1.6917432617584076 0.5613706357362388
v 0.4337087392637612 1.6917432617584076 0.4287881142637612
vt 0.125 0.15625
vt 0.125 1
vt 0.0625 1
vt 0.0625 0.15625
vt 0.25 0.15625
vt 0.25 1
vt 0.1875 1
vt 0.1875 0.15625
vt 0.25 0.5
vt 0.25 0.4375
vt 0.3125 0.4375
vt 0.3125 0.5
vt 0.3125 0.4375
vt 0.3125 0.5
vt 0.375 0.5
vt 0.375 0.4375
vt 0.1875 0.15625
vt 0.1875 1
vt 0.125 1
vt 0.125 0.15625
vt 0.0625 0.15625
vt 0.0625 1
vt 0 1
vt 0 0.15625
vt 0.4375 0.5
vt 0.4375 1
vt 0.34375 1
vt 0.34375 0.5
vt 0 0.90625
vt 0 0.90625
vt 0 1
vt 0 1
vt 0 1
vt 0 1
vt 0 0.90625
vt 0 0.90625
vt 0 1
vt 0 1
vt 0 0.5
vt 0 0.5
vt 0 1
vt 0 1
vt 0 0.5
vt 0 0.5
vt 0.4375 0.5
vt 0.4375 1
vt 0.34375 1
vt 0.34375 0.5
vt 0 1
vt 0 1
vt 0 0.90625
vt 0 0.90625
vt 0 0.90625
vt 0 0.90625
vt 0 1
vt 0 1
vt 0 1
vt 0 1
vt 0 0.5
vt 0 0.5
vt 0 1
vt 0 1
vt 0 0.5
vt 0 0.5
vt 0.4375 0.5
vt 0.4375 1
vt 0.34375 1
vt 0.34375 0.5
vt 0 0.90625
vt 0 0.90625
vt 0 1
vt 0 1
vt 0 1
vt 0 1
vt 0 0.90625
vt 0 0.90625
vt 0 1
vt 0 1
vt 0 0.5
vt 0 0.5
vt 0 1
vt 0 1
vt 0 0.5
vt 0 0.5
vt 0.4375 0.5
vt 0.4375 1
vt 0.34375 1
vt 0.34375 0.5
vt 0 1
vt 0 1
vt 0 0.90625
vt 0 0.90625
vt 0 0.90625
vt 0 0.90625
vt 0 1
vt 0 1
vt 0 1
vt 0 1
vt 0 0.5
vt 0 0.5
vt 0 1
vt 0 1
vt 0 0.5
vt 0 0.5
vt 0.53125 0.1875
vt 0.53125 0.59375
vt 0.4375 0.59375
vt 0.4375 0.1875
vt 0 0.90625
vt 0 0.90625
vt 0 1
vt 0 1
vt 0 1
vt 0 1
vt 0 0.90625
vt 0 0.90625
vt 0 1
vt 0 1
vt 0 0.59375
vt 0 0.59375
vt 0 1
vt 0 1
vt 0 0.59375
vt 0 0.59375
vt 0.4375 0.1875
vt 0.4375 0.59375
vt 0.53125 0.59375
vt 0.53125 0.1875
vt 0 0.90625
vt 0 0.90625
vt 0 1
vt 0 1
vt 0 1
vt 0 1
vt 0 0.90625
vt 0 0.90625
vt 0 1
vt 0 1
vt 0 0.59375
vt 0 0.59375
vt 0 1
vt 0 1
vt 0 0.59375
vt 0 0.59375
vt 0.4375 0.1875
vt 0.4375 0.59375
vt 0.53125 0.59375
vt 0.53125 0.1875
vt 0 1
vt 0 1
vt 0 0.90625
vt 0 0.90625
vt 0 0.90625
vt 0 0.90625
vt 0 1
vt 0 1
vt 0 1
vt 0 1
vt 0 0.59375
vt 0 0.59375
vt 0 1
vt 0 1
vt 0 0.59375
vt 0 0.59375
vt 0.53125 0.1875
vt 0.53125 0.59375
vt 0.4375 0.59375
vt 0.4375 0.1875
vt 0 1
vt 0 1
vt 0 0.90625
vt 0 0.90625
vt 0 0.90625
vt 0 0.90625
vt 0 1
vt 0 1
vt 0 1
vt 0 1
vt 0 0.59375
vt 0 0.59375
vt 0 1
vt 0 1
vt 0 0.59375
vt 0 0.59375
vn 1 0 0
vn -1 0 0
vn 0 1 0
vn 0 -1 0
vn 0 0 1
vn 0 0 -1
vn 0 -0.3826834323650897 0.9238795325112868
vn 0 0 0
vn 0 0 0
vn 0 0 0
vn 0 0 0
vn 0 -0.3826834323650897 -0.9238795325112868
vn 0 0 0
vn 0 0 0
vn 0 0 0
vn 0 0 0
vn 0.9238795325112868 -0.38268343236508984 0
vn 0 0 0
vn 0 0 0
vn 0 0 0
vn 0 0 0
vn -0.9238795325112868 -0.38268343236508984 0
vn 0 0 0
vn 0 0 0
vn 0 0 0
vn 0 0 0
vn -0.5 -0.7071067811865475 0.5000000000000003
vn 0 0 0
vn 0 0 0
vn 0 0 0
vn 0 0 0
vn 0.4999999999999999 -0.7663204807600038 0.40342647504564777
vn 0 0 0
vn 0 0 0
vn 0 0 0
vn 0 0 0
vn -0.5000000000000002 -0.7071067811865474 -0.5
vn 0 0 0
vn 0 0 0
vn 0 0 0
vn 0 0 0
vn 0.5 -0.7071067811865475 -0.5000000000000003
vn 0 0 0
vn 0 0 0
vn 0 0 0
vn 0 0 0
usemtl m_ae030382-bb27-2bf8-af5e-6ffcffc29382
f 4/1/1 2/2/1 1/3/1 3/4/1
f 7/5/2 5/6/2 6/7/2 8/8/2
f 1/9/3 2/10/3 6/11/3 5/12/3
f 4/13/4 3/14/4 7/15/4 8/16/4
f 3/17/5 1/18/5 5/19/5 7/20/5
f 8/21/6 6/22/6 2/23/6 4/24/6
f 15/25/7 13/26/7 14/27/7 16/28/7
f 10/29/8 14/30/8 9/31/8 13/32/8
f 11/33/9 15/34/9 12/35/9 16/36/9
f 9/37/10 13/38/10 11/39/10 15/40/10
f 14/41/11 10/42/11 16/43/11 12/44/11
f 20/45/12 18/46/12 17/47/12 19/48/12
f 18/49/13 22/50/13 17/51/13 21/52/13
f 19/53/14 23/54/14 20/55/14 24/56/14
f 17/57/15 21/58/15 19/59/15 23/60/15
f 22/61/16 18/62/16 24/63/16 20/64/16
f 31/65/17 29/66/17 30/67/17 32/68/17
f 26/69/18 30/70/18 25/71/18 29/72/18
f 27/73/19 31/74/19 28/75/19 32/76/19
f 25/77/20 29/78/20 27/79/20 31/80/20
f 30/81/21 26/82/21 32/83/21 28/84/21
f 36/85/22 34/86/22 33/87/22 35/88/22
f 34/89/23 38/90/23 33/91/23 37/92/23
f 35/93/24 39/94/24 36/95/24 40/96/24
f 33/97/25 37/98/25 35/99/25 39/100/25
f 38/101/26 34/102/26 40/103/26 36/104/26
f 47/105/27 45/106/27 46/107/27 48/108/27
f 42/109/28 46/110/28 41/111/28 45/112/28
f 43/113/29 47/114/29 44/115/29 48/116/29
f 41/117/30 45/118/30 43/119/30 47/120/30
f 46/121/31 42/122/31 48/123/31 44/124/31
f 52/125/32 50/126/32 49/127/32 51/128/32
f 50/129/33 54/130/33 49/131/33 53/132/33
f 51/133/34 55/134/34 52/135/34 56/136/34
f 49/137/35 53/138/35 51/139/35 55/140/35
f 54/141/36 50/142/36 56/143/36 52/144/36
f 63/145/37 61/146/37 62/147/37 64/148/37
f 58/149/38 62/150/38 57/151/38 61/152/38
f 59/153/39 63/154/39 60/155/39 64/156/39
f 57/157/40 61/158/40 59/159/40 63/160/40
f 62/161/41 58/162/41 64/163/41 60/164/41
f 68/165/42 66/166/42 65/167/42 67/168/42
f 66/169/43 70/170/43 65/171/43 69/172/43
f 67/173/44 71/174/44 68/175/44 72/176/44
f 65/177/45 69/178/45 67/179/45 71/180/45
f 70/181/46 66/182/46 72/183/46 68/184/46